<svg width="22" height="17" viewBox="0 0 22 17" fill="none" xmlns="http://www.w3.org/2000/svg">
<path d="M19.25 7.31406C18.7772 7.10651 18.2664 6.99955 17.75 7H4.25C3.73368 6.9995 3.22288 7.10629 2.75 7.31359C2.08166 7.60587 1.51294 8.08652 1.11336 8.6968C0.713775 9.30708 0.500639 10.0205 0.5 10.75V16C0.5 16.1989 0.579018 16.3897 0.71967 16.5303C0.860322 16.671 1.05109 16.75 1.25 16.75C1.44891 16.75 1.63968 16.671 1.78033 16.5303C1.92098 16.3897 2 16.1989 2 16V15.625C2.00122 15.5259 2.04112 15.4312 2.11118 15.3612C2.18124 15.2911 2.27592 15.2512 2.375 15.25H19.625C19.7241 15.2512 19.8188 15.2911 19.8888 15.3612C19.9589 15.4312 19.9988 15.5259 20 15.625V16C20 16.1989 20.079 16.3897 20.2197 16.5303C20.3603 16.671 20.5511 16.75 20.75 16.75C20.9489 16.75 21.1397 16.671 21.2803 16.5303C21.421 16.3897 21.5 16.1989 21.5 16V10.75C21.4993 10.0206 21.2861 9.30726 20.8865 8.69707C20.4869 8.08688 19.9183 7.6063 19.25 7.31406ZM16.625 0.25H5.375C4.67881 0.25 4.01113 0.526562 3.51884 1.01884C3.02656 1.51113 2.75 2.17881 2.75 2.875V6.25C2.75002 6.27906 2.75679 6.30771 2.76979 6.3337C2.78278 6.35969 2.80163 6.3823 2.82486 6.39976C2.84809 6.41721 2.87505 6.42903 2.90363 6.43428C2.93221 6.43953 2.96162 6.43806 2.98953 6.43C3.39896 6.31025 3.82341 6.24964 4.25 6.25H4.44828C4.49456 6.25029 4.53932 6.23346 4.57393 6.20274C4.60855 6.17202 4.63058 6.12958 4.63578 6.08359C4.67669 5.71712 4.85115 5.37856 5.12586 5.13256C5.40056 4.88656 5.75625 4.75037 6.125 4.75H8.75C9.11899 4.75003 9.47503 4.88606 9.75002 5.13209C10.025 5.37812 10.1997 5.71688 10.2406 6.08359C10.2458 6.12958 10.2679 6.17202 10.3025 6.20274C10.3371 6.23346 10.3818 6.25029 10.4281 6.25H11.5747C11.621 6.25029 11.6657 6.23346 11.7003 6.20274C11.735 6.17202 11.757 6.12958 11.7622 6.08359C11.8031 5.71736 11.9773 5.37899 12.2517 5.13303C12.5261 4.88706 12.8815 4.75072 13.25 4.75H15.875C16.244 4.75003 16.6 4.88606 16.875 5.13209C17.15 5.37812 17.3247 5.71688 17.3656 6.08359C17.3708 6.12958 17.3929 6.17202 17.4275 6.20274C17.4621 6.23346 17.5068 6.25029 17.5531 6.25H17.75C18.1766 6.24979 18.6011 6.31057 19.0105 6.43047C19.0384 6.43854 19.0679 6.44 19.0965 6.43473C19.1251 6.42945 19.1521 6.41759 19.1753 6.40009C19.1986 6.38258 19.2174 6.3599 19.2304 6.33385C19.2433 6.3078 19.2501 6.2791 19.25 6.25V2.875C19.25 2.17881 18.9734 1.51113 18.4812 1.01884C17.9889 0.526562 17.3212 0.25 16.625 0.25Z" fill="#112211"/>
</svg>
