<svg width="24" height="21" viewBox="0 0 24 21" fill="none" xmlns="http://www.w3.org/2000/svg">
<path d="M8.74733 20.25H7.49952C7.37414 20.25 7.25077 20.2185 7.14069 20.1585C7.03062 20.0984 6.93735 20.0118 6.86941 19.9064C6.80147 19.801 6.76104 19.6803 6.7518 19.5552C6.74257 19.4302 6.76483 19.3048 6.81655 19.1906L9.83811 12.5227L5.30108 12.4219L3.64639 14.4267C3.33092 14.8233 3.07921 15 2.43702 15H1.59702C1.46402 15.0043 1.33195 14.9764 1.212 14.9188C1.09205 14.8612 0.987757 14.7755 0.907956 14.6691C0.796393 14.5186 0.686706 14.2636 0.793581 13.8998L1.72264 10.5717C1.72967 10.5469 1.73811 10.522 1.74749 10.4977C1.74795 10.4953 1.74795 10.4929 1.74749 10.4906C1.73781 10.4663 1.72951 10.4414 1.72264 10.4161L0.792643 7.06687C0.691862 6.71016 0.802018 6.46078 0.912643 6.31406C0.986929 6.21549 1.08331 6.13573 1.19403 6.08118C1.30475 6.02664 1.42672 5.99883 1.55014 6H2.43702C2.91655 6 3.38202 6.21516 3.65577 6.5625L5.27624 8.53359L9.83811 8.46609L6.81749 1.80984C6.7657 1.69568 6.74335 1.57036 6.75249 1.44533C6.76163 1.3203 6.80196 1.19956 6.8698 1.09414C6.93764 0.988715 7.03082 0.901982 7.14083 0.841864C7.25083 0.781747 7.37416 0.750163 7.49952 0.75H8.76092C8.9369 0.753536 9.10983 0.79667 9.26685 0.876197C9.42388 0.955724 9.56097 1.0696 9.66796 1.20937L15.5297 8.33438L18.2376 8.26312C18.4359 8.25234 18.9853 8.24859 19.1123 8.24859C21.7026 8.25 23.2495 9.09094 23.2495 10.5C23.2495 10.9434 23.0723 11.7656 21.8869 12.2887C21.187 12.5981 20.2533 12.7547 19.1114 12.7547C18.9858 12.7547 18.4378 12.7509 18.2367 12.7402L15.5292 12.668L9.65296 19.793C9.54588 19.9321 9.40891 20.0454 9.25216 20.1246C9.0954 20.2037 8.92288 20.2465 8.74733 20.25Z" fill="#112211"/>
</svg>
