<svg width="160" height="41" viewBox="0 0 160 41" fill="none" xmlns="http://www.w3.org/2000/svg">
<rect width="160" height="41" fill="#1E1E1E"/>
<path d="M-2063 -867H4037V-883H-2063V-867ZM4109 -795V7211H4125V-795H4109ZM4037 7283H-2063V7299H4037V7283ZM-2135 7211V-795H-2151V7211H-2135ZM-2063 7283C-2102.76 7283 -2135 7250.76 -2135 7211H-2151C-2151 7259.6 -2111.6 7299 -2063 7299V7283ZM4109 7211C4109 7250.76 4076.76 7283 4037 7283V7299C4085.6 7299 4125 7259.6 4125 7211H4109ZM4037 -867C4076.76 -867 4109 -834.765 4109 -795H4125C4125 -843.601 4085.6 -883 4037 -883V-867ZM-2063 -883C-2111.6 -883 -2151 -843.601 -2151 -795H-2135C-2135 -834.764 -2102.76 -867 -2063 -867V-883Z" fill="#8DD3BB"/>
<g clip-path="url(#clip0_0_1)">
<rect width="1440" height="2408" transform="translate(-503 -775)" fill="#FAFBFC"/>
<g filter="url(#filter0_d_0_1)">
<rect x="-16" y="-23.5" width="840" height="286.5" rx="12" fill="white" shape-rendering="crispEdges"/>
<path d="M74.349 2.70728L72.5975 4.15874V11.3843C72.5975 11.3843 72.7292 11.8454 72.1681 11.8454H70.946C70.946 11.8454 70.5825 11.9113 70.4166 11.4161V6.66404L68.5334 8.14965V11.316C68.5334 11.316 68.5992 11.8771 67.9381 11.843H66.9136C66.9136 11.843 66.4184 11.943 66.4501 11.3819C66.4842 10.7867 66.4501 8.90832 66.4501 8.90832H64.501V11.4502C64.501 11.4502 64.5351 11.8137 64.0058 11.8454H62.6177C62.6177 11.8454 62.1884 11.8112 62.1884 11.4161V8.94247H60.5369V11.4161C60.5369 11.4161 60.6369 11.943 59.9417 11.8771H58.0926C58.0926 11.8771 57.7291 11.8112 57.8291 11.0843V3.00001L56.0459 4.088V11.9405C56.0459 11.9405 56.3435 12.9627 57.7315 12.9309H61.0028C61.0028 12.9309 61.3322 12.8651 61.3663 12.3699C61.3663 12.3699 61.4322 12.9309 61.8957 12.9309H64.1741H64.7693C64.7693 12.9309 65.4304 12.9309 65.4621 12.4699C65.4621 12.4699 65.5938 12.9309 65.8914 12.9309H69.0627C69.0627 12.9309 69.4262 12.8968 69.5262 12.5016C69.5262 12.5016 69.6262 12.9309 70.3849 12.9309H73.1585C73.1585 12.9309 74.1831 12.9309 74.3465 11.9088V2.70728H74.349Z" fill="#03549B"/>
<path d="M119.866 2.64185L118.347 4.0616L118.381 12.9045H119.932L119.866 2.64185Z" fill="#03549B"/>
<path d="M78.1173 2.64185L76.4658 3.96158V12.9021H78.1515L78.1173 2.64185Z" fill="#03549B"/>
<path d="M52.3208 6.83276H48.2567C48.1908 6.83276 48.2225 11.6506 48.2225 11.6506H46.1075C44.9195 11.7165 44.9513 12.7386 44.9513 12.7386L45.0171 14.7195C45.4465 15.9733 46.8345 15.4781 46.8345 15.4781V12.9387H47.6932C49.2129 12.9045 49.3447 11.8507 49.3447 11.8507C49.9716 13.3021 52.1183 12.8069 52.1183 12.8069C54.265 12.3434 54.2992 10.7285 54.2992 10.7285L54.3333 9.27708C54.1382 7.39383 52.3208 6.83276 52.3208 6.83276ZM52.4867 9.07704V11.0896C52.4867 11.0896 52.2891 11.9483 51.1328 11.9141C51.1328 11.9141 50.1741 11.98 49.9448 10.9578L50.0106 7.79146H51.728C51.7256 7.79146 52.5525 8.08663 52.4867 9.07704Z" fill="#03549B"/>
<path d="M120.63 38.2771L120.167 39.6627H119.54L121.092 35.2742H121.818L123.404 39.6627H122.777L122.282 38.2771H120.63ZM122.15 37.8478L121.687 36.5939C121.587 36.2963 121.521 36.0328 121.455 35.8011C121.389 36.0645 121.323 36.328 121.223 36.5939L120.76 37.8478H122.15Z" fill="#03549B"/>
<path d="M127.135 35.2742V39.6627H126.54V35.2742H127.135Z" fill="#03549B"/>
<path d="M130.639 35.3395C130.936 35.2737 131.366 35.2395 131.795 35.2395C132.422 35.2395 132.851 35.3395 133.117 35.603C133.349 35.8006 133.481 36.0982 133.481 36.4275C133.481 37.0203 133.083 37.3838 132.622 37.5496V37.5838C132.985 37.7155 133.183 38.0131 133.283 38.4742C133.449 39.1011 133.546 39.4963 133.646 39.6622H133.02C132.954 39.5305 132.854 39.167 132.722 38.6059C132.59 38.0131 132.327 37.7814 131.797 37.7497H131.236V39.6622H130.641V35.3395H130.639ZM131.234 37.3521H131.829C132.456 37.3521 132.854 37.0227 132.854 36.5275C132.854 35.9665 132.424 35.703 131.797 35.703C131.5 35.703 131.302 35.7371 131.202 35.7689V37.3521H131.234Z" fill="#03549B"/>
<path d="M136.781 35.2742H137.376V39.1675H139.357V39.6286H136.813V35.2742H136.781Z" fill="#03549B"/>
<path d="M141.11 35.2742V39.6627H140.515V35.2742H141.11Z" fill="#03549B"/>
<path d="M144.612 39.6629V35.2744H145.273L146.759 37.4845C147.088 38.0114 147.354 38.4749 147.586 38.9043C147.52 38.3115 147.52 37.7821 147.52 37.0893V35.2427H148.081V39.6312H147.486L146.032 37.4211C145.703 36.9259 145.405 36.4307 145.173 35.9696H145.139C145.173 36.5307 145.173 37.0576 145.173 37.7846V39.6654H144.612V39.6629Z" fill="#03549B"/>
<path d="M153.958 37.6153H152.174V39.1985H154.155V39.6595H151.579V35.271H154.058V35.732H152.174V37.1176H153.958V37.6153Z" fill="#03549B"/>
<path d="M157.326 38.9704C157.59 39.1362 157.987 39.268 158.382 39.268C158.978 39.268 159.341 38.9703 159.341 38.5093C159.341 38.1141 159.109 37.8506 158.482 37.6506C157.724 37.3872 157.26 37.0237 157.26 36.3967C157.26 35.7039 157.855 35.2087 158.746 35.2087C159.209 35.2087 159.573 35.3088 159.77 35.4405L159.604 35.9015C159.439 35.8357 159.141 35.7039 158.746 35.7039C158.119 35.7039 157.887 36.0674 157.887 36.3626C157.887 36.7578 158.151 36.9895 158.812 37.2213C159.604 37.5189 160 37.8824 160 38.5093C160 39.2021 159.47 39.7632 158.382 39.7632C157.953 39.7632 157.458 39.6314 157.194 39.4997L157.326 38.9704Z" fill="#03549B"/>
<path d="M54.8316 19.9321L54.7657 19.9662C54.3705 19.5369 53.8729 19.2076 53.3118 18.9441C52.7507 18.6807 52.1238 18.5489 51.4286 18.5489C50.7675 18.5489 50.1723 18.6807 49.6112 18.9124C49.0501 19.1441 48.5866 19.4735 48.1914 19.9345C47.7963 20.3956 47.4986 20.9249 47.2669 21.5836C47.0351 22.2422 46.9376 22.9692 46.9376 23.7937C46.9376 24.7182 47.0376 25.5428 47.2352 26.3356C47.4328 27.1284 47.7645 27.8212 48.1597 28.3823C48.5549 28.9434 49.0843 29.4044 49.7112 29.7362C50.3381 30.0655 51.0651 30.2314 51.8579 30.2314C52.1555 30.2314 52.4531 30.1972 52.7507 30.1314C53.0484 30.0655 53.346 29.9655 53.6094 29.802C53.8729 29.6703 54.1388 29.5044 54.3681 29.3068C54.5998 29.1092 54.8316 28.8775 55.0292 28.614L55.1292 28.6799L54.5023 30.4948C54.1071 30.6607 53.6753 30.7924 53.2142 30.89C52.7507 30.99 52.2555 31.0217 51.7945 31.0217C50.8358 31.0217 49.9454 30.8559 49.1526 30.5583C48.3598 30.2289 47.667 29.7996 47.0717 29.2044C46.5107 28.6116 46.0472 27.9188 45.7179 27.0943C45.3885 26.2697 45.2227 25.3793 45.2227 24.3548C45.2227 23.7937 45.2885 23.2326 45.4202 22.7057C45.552 22.1446 45.7496 21.6494 45.9813 21.1542C46.2131 20.659 46.5424 20.198 46.8742 19.8004C47.2376 19.371 47.6328 19.0417 48.0963 18.7124C48.5598 18.4148 49.055 18.1854 49.6161 18.0196C50.1771 17.8537 50.7724 17.7561 51.4335 17.7561C52.4239 17.7561 53.3826 17.922 54.2412 18.283L54.8316 19.9321Z" fill="#03549B"/>
<path d="M65.567 24.6191C65.3694 24.6191 65.1035 24.6191 64.7742 24.6191C64.4765 24.6191 64.1131 24.6191 63.7496 24.6191C63.3861 24.6191 62.9909 24.6191 62.5933 24.6191C62.1981 24.6191 61.8005 24.6191 61.437 24.6191C61.0418 24.6191 60.7101 24.6191 60.3466 24.6191C60.0173 24.6191 59.7196 24.6191 59.4537 24.6533V27.2927C59.4537 27.7879 59.4537 28.249 59.4879 28.6125C59.522 28.9759 59.5221 29.3053 59.5221 29.6029C59.5562 29.8663 59.5562 30.0981 59.5879 30.2957C59.6221 30.4933 59.6538 30.625 59.6879 30.7567V30.7909H57.8047V30.7567C57.8388 30.625 57.8706 30.4933 57.9047 30.2957C57.9389 30.0981 57.9706 29.8663 57.9706 29.6029C58.0047 29.3394 58.0047 29.0077 58.0047 28.6125C58.0047 28.2173 58.0047 27.7879 58.0047 27.2927V21.4527C58.0047 20.9575 58.0047 20.4965 58.0047 20.133C58.0047 19.7695 57.9706 19.4402 57.9706 19.1426C57.9364 18.8791 57.9364 18.6474 57.9047 18.4498C57.8706 18.2522 57.8388 18.1205 57.8047 17.9887V17.9546H59.6879V17.9887C59.6538 18.1205 59.6221 18.2522 59.5879 18.4498C59.5538 18.6474 59.5221 18.8791 59.5221 19.1426C59.4879 19.4061 59.4879 19.7378 59.4879 20.133C59.4879 20.4965 59.4537 20.9575 59.4537 21.4527V23.7287C59.7172 23.7287 60.049 23.7629 60.3783 23.7629C60.7076 23.7629 61.0711 23.7629 61.4687 23.7629C61.8322 23.7629 62.2274 23.7629 62.625 23.7629C63.0226 23.7629 63.3837 23.7629 63.7471 23.7287C64.1106 23.7287 64.4399 23.6946 64.7717 23.6946C65.101 23.6946 65.3669 23.6604 65.5987 23.6604V21.4503C65.5987 20.9551 65.5987 20.494 65.5645 20.1306C65.5645 19.7671 65.5304 19.4378 65.5304 19.1402C65.4962 18.8767 65.4962 18.6449 65.4645 18.4474C65.4304 18.2498 65.3986 18.118 65.3645 17.9863V17.9521H67.2477V17.9863C67.2136 18.118 67.1819 18.2498 67.1477 18.4474C67.1136 18.6449 67.0819 18.8767 67.0819 19.1402C67.0477 19.4036 67.0477 19.7354 67.0477 20.1306C67.0477 20.494 67.0477 20.9551 67.0477 21.4503V27.2561C67.0477 27.7514 67.0477 28.2124 67.0477 28.5759C67.0477 28.9394 67.0819 29.2687 67.0819 29.5663C67.116 29.8297 67.116 30.0615 67.1477 30.2591C67.1819 30.4567 67.2136 30.5884 67.2477 30.7201V30.7543H65.3645V30.7201C65.3986 30.5884 65.4304 30.4567 65.4645 30.2591C65.4987 30.0615 65.5304 29.8297 65.5304 29.5663C65.5645 29.3028 65.5645 28.9711 65.5645 28.5759C65.5645 28.1807 65.5987 27.7514 65.5987 27.2561V24.6167H65.567V24.6191Z" fill="#03549B"/>
<path d="M78.418 30.7538V30.7197C78.418 30.6855 78.4521 30.6538 78.4521 30.588C78.4521 30.5221 78.4521 30.4879 78.4521 30.4221C78.4521 30.2245 78.418 30.0269 78.3863 29.7951C78.3521 29.5634 78.2545 29.2999 78.1228 28.9706L77.1641 26.5629C76.8665 26.5629 76.4713 26.5287 76.0078 26.5287C75.5126 26.5287 74.9833 26.5287 74.4222 26.5287C74.027 26.5287 73.5952 26.5287 73.2342 26.5287C72.8707 26.5287 72.5072 26.5287 72.2096 26.5629L71.3168 28.9047C71.2509 29.1365 71.1509 29.3658 71.0533 29.6293C70.9533 29.8927 70.9216 30.1562 70.9216 30.4221C70.9216 30.4879 70.9216 30.5538 70.9216 30.6197C70.9216 30.6855 70.9557 30.7197 70.9557 30.7197V30.7538H69.3701V30.7197C69.4701 30.6197 69.5677 30.4221 69.7336 30.1245C69.8995 29.8269 70.0312 29.4658 70.1971 29.0365L74.6905 17.6858H75.3175L79.5791 28.573C79.6792 28.8364 79.7767 29.0682 79.8768 29.3316C79.9768 29.5634 80.0744 29.7927 80.1744 29.9903C80.2744 30.1879 80.3403 30.3538 80.4378 30.4855C80.5037 30.6172 80.5696 30.6831 80.5696 30.749V30.7831H78.4229V30.7538H78.418ZM73.3635 25.7725C73.6611 25.7725 73.9904 25.7725 74.288 25.7725C74.6173 25.7725 74.9149 25.7725 75.2126 25.7725C75.5102 25.7725 75.8078 25.7725 76.1054 25.7725C76.403 25.7725 76.6348 25.7725 76.8641 25.7725L74.6515 20.0642L72.5048 25.7725H73.3635Z" fill="#03549B"/>
<path d="M82.1797 30.6879C82.2456 30.5879 82.3114 30.4562 82.3773 30.2586C82.4431 30.061 82.509 29.8292 82.5432 29.5658C82.609 29.1364 82.6749 28.6754 82.7408 28.146C82.8066 27.6191 82.8725 27.0898 82.9725 26.497C83.0384 25.9359 83.1384 25.3431 83.2042 24.7479C83.2701 24.1527 83.336 23.5599 83.436 22.9988C83.5019 22.406 83.5677 21.8767 83.6336 21.3156C83.6995 20.7887 83.7653 20.2935 83.7995 19.83C83.8653 19.3689 83.8995 19.0055 83.9312 18.6761C83.9654 18.3468 83.9971 18.0834 83.9971 17.9175H84.9875L89.9102 28.4095L94.7989 17.9175H95.5575L96.8456 28.5095C96.8797 28.8388 96.9114 29.1364 96.9773 29.3682C97.0114 29.5999 97.0773 29.7975 97.109 29.9951C97.1432 30.161 97.209 30.2927 97.2408 30.4245C97.2749 30.5245 97.3066 30.6221 97.3408 30.6879V30.7221H95.3599V30.6879C95.3941 30.6221 95.4258 30.522 95.4258 30.3586C95.46 30.2269 95.46 30.0293 95.46 29.8317C95.46 29.7658 95.46 29.6658 95.46 29.5999C95.46 29.5341 95.46 29.434 95.4258 29.3365L94.4354 20.7911L89.8102 30.6904L89.2809 30.6245L84.624 20.7253C84.4264 22.145 84.2947 23.4306 84.1605 24.6186C84.0946 25.1138 84.0605 25.6407 83.9946 26.1359C83.9288 26.6311 83.8946 27.1263 83.8287 27.5557C83.7946 27.985 83.7629 28.3802 83.7287 28.7095C83.6946 29.0389 83.6946 29.3023 83.6946 29.4682C83.6946 29.6658 83.6946 29.8634 83.6946 29.9951C83.6946 30.161 83.7287 30.2927 83.7287 30.3903C83.7287 30.522 83.7629 30.6221 83.7629 30.7196H82.2114V30.6855H82.1797V30.6879Z" fill="#03549B"/>
<path d="M110.687 19.5367L113.959 28.1821L117.13 19.7026C117.262 19.3391 117.362 19.044 117.393 18.8122C117.459 18.5805 117.494 18.3487 117.494 18.1853C117.494 18.1194 117.494 18.0853 117.494 18.0194C117.494 17.9535 117.494 17.9194 117.459 17.8877V17.8535H119.079V17.8877C118.979 18.0194 118.847 18.217 118.716 18.5146C118.584 18.8122 118.452 19.1415 118.286 19.5709L113.927 30.8874H113.3L110.129 22.4738L107.221 30.8874H106.594L102.598 20.0002C102.498 19.7368 102.401 19.505 102.301 19.2757C102.201 19.044 102.103 18.8146 102.003 18.6488C101.903 18.4512 101.837 18.2853 101.771 18.1536C101.705 18.0218 101.64 17.9218 101.605 17.8901V17.8559H103.884V17.8901C103.884 17.956 103.884 18.0218 103.884 18.056C103.884 18.0901 103.884 18.1219 103.884 18.1877C103.884 18.3853 103.918 18.6171 103.95 18.8147C103.984 19.0122 104.082 19.3099 104.182 19.6392L107.253 28.1187L110.192 19.605L110.687 19.5367Z" fill="#03549B"/>
<path d="M121.325 30.5898C121.359 30.4581 121.391 30.3263 121.425 30.1287C121.459 29.9311 121.491 29.6994 121.491 29.4359C121.525 29.1725 121.525 28.8432 121.525 28.4455C121.525 28.0821 121.525 27.621 121.525 27.1258V21.3517C121.525 20.8565 121.525 20.3954 121.525 20.0319C121.525 19.6685 121.491 19.3391 121.491 19.0415C121.457 18.7781 121.457 18.5463 121.425 18.3487C121.391 18.1511 121.359 18.0194 121.325 17.8877V17.8535H123.274V17.8877C123.24 18.0194 123.208 18.1511 123.174 18.3487C123.14 18.5463 123.108 18.7781 123.108 19.0415C123.074 19.305 123.074 19.6343 123.074 20.0319C123.074 20.3954 123.04 20.8565 123.04 21.3517V27.1575C123.04 27.6527 123.04 28.1138 123.074 28.4772C123.108 28.8407 123.108 29.17 123.108 29.4677C123.143 29.7311 123.143 29.9629 123.174 30.1605C123.208 30.358 123.24 30.4898 123.274 30.6215V30.6557H121.325V30.5898Z" fill="#03549B"/>
<path d="M127.4 17.8535L135.823 27.621V21.3517C135.823 20.8565 135.823 20.3954 135.823 20.0319C135.823 19.6685 135.789 19.3391 135.789 19.0415C135.755 18.7781 135.755 18.5463 135.723 18.3487C135.689 18.1511 135.657 18.0194 135.623 17.8877V17.8535H137.077V17.8877C137.043 18.0194 137.011 18.1511 136.977 18.3487C136.943 18.5463 136.911 18.7781 136.911 19.0415C136.877 19.305 136.877 19.6343 136.877 20.0319C136.877 20.3954 136.877 20.8565 136.877 21.3517V30.8215H136.58L128.156 21.0541V27.1575C128.156 27.6527 128.156 28.1138 128.156 28.4772C128.156 28.8407 128.19 29.17 128.19 29.4677C128.225 29.7311 128.225 29.9629 128.256 30.1605C128.29 30.3581 128.322 30.4898 128.356 30.6215V30.6557H126.902V30.6215C126.936 30.4898 126.968 30.3581 127.002 30.1605C127.037 29.9629 127.068 29.7311 127.068 29.4677C127.102 29.2042 127.102 28.8749 127.102 28.4772C127.102 28.1138 127.102 27.6527 127.102 27.1575V21.3517C127.102 20.8565 127.102 20.3954 127.102 20.0319C127.102 19.6685 127.068 19.3391 127.068 19.0415C127.034 18.7781 127.034 18.5463 127.002 18.3487C126.968 18.1511 126.936 18.0194 126.902 17.8877V17.8535H127.4Z" fill="#03549B"/>
<path d="M150.855 29.1369C150.855 29.2028 150.855 29.2687 150.82 29.3345C150.82 29.4004 150.786 29.4663 150.72 29.5004C150.489 29.698 150.225 29.8956 149.928 30.0615C149.63 30.2274 149.332 30.3908 149.003 30.4908C148.674 30.5908 148.31 30.7226 147.913 30.7884C147.517 30.8543 147.12 30.8884 146.69 30.8884C145.7 30.8884 144.807 30.7226 143.983 30.4274C143.156 30.1298 142.463 29.6687 141.868 29.0735C141.272 28.4807 140.843 27.7855 140.514 26.961C140.184 26.1364 140.019 25.246 140.019 24.2215C140.019 23.6604 140.084 23.0993 140.216 22.5724C140.348 22.0113 140.545 21.5161 140.811 21.0209C141.075 20.5257 141.372 20.0647 141.77 19.667C142.134 19.2377 142.563 18.9084 143.058 18.5791C143.553 18.2815 144.083 18.0521 144.644 17.8863C145.239 17.7204 145.866 17.6228 146.527 17.6228C146.79 17.6228 147.056 17.6228 147.32 17.657C147.583 17.6911 147.849 17.7228 148.113 17.7887C148.376 17.8545 148.642 17.8887 148.871 17.9863C149.135 18.0521 149.366 18.1522 149.564 18.218L150.125 19.8671L150.059 19.9012C149.862 19.7036 149.596 19.506 149.332 19.306C149.069 19.1401 148.771 18.9767 148.439 18.845C148.11 18.7132 147.778 18.6132 147.449 18.5474C147.12 18.4815 146.756 18.4473 146.393 18.4473C145.7 18.4473 145.071 18.5791 144.51 18.8108C143.948 19.0426 143.453 19.3719 143.024 19.8329C142.629 20.294 142.297 20.8233 142.065 21.482C141.833 22.1431 141.736 22.8676 141.736 23.6921C141.736 24.6167 141.836 25.4412 142.065 26.234C142.297 27.0244 142.595 27.6855 143.024 28.2465C143.453 28.8076 143.983 29.2687 144.644 29.6004C145.305 29.9297 146.032 30.0956 146.89 30.0956C147.286 30.0956 147.617 30.0615 147.915 29.9956C148.213 29.9297 148.476 29.8639 148.674 29.7639C148.871 29.6638 149.037 29.5663 149.137 29.4345C149.237 29.3028 149.303 29.2028 149.303 29.1052V28.7417C149.303 28.3124 149.303 27.9831 149.303 27.6538C149.303 27.3561 149.269 27.0927 149.269 26.8609C149.235 26.6292 149.235 26.4316 149.203 26.2999C149.169 26.134 149.137 26.0023 149.103 25.8388V25.8047H151.052V25.8388C151.018 25.9705 150.986 26.1023 150.952 26.2682C150.918 26.434 150.886 26.6316 150.886 26.8609C150.852 27.0927 150.852 27.3561 150.852 27.6855C150.852 27.9831 150.852 28.3441 150.852 28.7735V29.1369H150.855Z" fill="#03549B"/>
<path d="M159.112 19.8659H158.946C158.911 19.7341 158.846 19.5683 158.748 19.4048C158.648 19.2389 158.516 19.0755 158.385 18.9096C158.219 18.7437 158.055 18.6461 157.823 18.5461C157.592 18.4461 157.328 18.3803 157.031 18.3803C156.767 18.3803 156.535 18.4144 156.304 18.512C156.106 18.612 155.909 18.7096 155.774 18.8755C155.643 19.0413 155.543 19.2389 155.445 19.4365C155.379 19.6683 155.345 19.8976 155.345 20.161C155.345 20.5904 155.445 20.9856 155.674 21.3808C155.906 21.7759 156.17 22.1394 156.501 22.5346C156.831 22.9298 157.194 23.2933 157.592 23.6885C157.987 24.0836 158.35 24.4471 158.682 24.8765C159.011 25.3058 159.277 25.701 159.509 26.1645C159.741 26.6255 159.838 27.089 159.838 27.6159C159.838 28.0111 159.773 28.3746 159.641 28.7698C159.509 29.165 159.343 29.4967 159.08 29.8261C158.816 30.1554 158.485 30.3871 158.089 30.5847C157.694 30.7823 157.197 30.8823 156.635 30.8823C156.338 30.8823 156.04 30.8482 155.743 30.7823C155.479 30.7165 155.213 30.6506 154.984 30.5506C154.752 30.4506 154.52 30.353 154.357 30.253C154.159 30.153 154.028 30.0554 153.894 29.9554L154.091 27.977H154.289C154.355 28.2404 154.455 28.538 154.586 28.7674C154.718 29.0308 154.884 29.2284 155.082 29.4284C155.279 29.626 155.511 29.7919 155.774 29.8895C156.038 29.9895 156.304 30.0554 156.601 30.0554C156.865 30.0554 157.131 30.0212 157.36 29.9236C157.592 29.8236 157.755 29.6919 157.921 29.5285C158.087 29.365 158.185 29.165 158.285 28.9357C158.385 28.7039 158.416 28.4746 158.416 28.2087C158.416 27.8452 158.35 27.4818 158.219 27.1866C158.087 26.889 157.921 26.5597 157.723 26.2962C157.526 25.9986 157.294 25.7351 157.031 25.4717C156.767 25.2082 156.501 24.9448 156.238 24.6789C155.974 24.4154 155.708 24.1178 155.445 23.8543C155.182 23.5909 154.95 23.2616 154.752 22.9298C154.555 22.6005 154.389 22.2711 154.257 21.8735C154.125 21.51 154.059 21.0807 154.059 20.6538C154.059 20.1927 154.159 19.7634 154.323 19.3999C154.489 19.0365 154.718 18.7071 154.984 18.4437C155.247 18.1802 155.579 17.9826 155.909 17.8167C156.272 17.685 156.601 17.6191 156.999 17.6191C157.262 17.6191 157.528 17.6533 157.758 17.685C157.987 17.7167 158.187 17.785 158.385 17.8509C158.582 17.9168 158.714 17.9826 158.848 18.0485C158.98 18.1143 159.08 18.1802 159.177 18.2144L159.112 19.8659Z" fill="#03549B"/>
<path d="M65.3017 4.95406C65.6481 4.95406 65.9287 4.67353 65.9287 4.32713C65.9287 3.98073 65.6481 3.7002 65.3017 3.7002C64.9553 3.7002 64.6748 3.98073 64.6748 4.32713C64.6748 4.67353 64.9553 4.95406 65.3017 4.95406Z" fill="#03549B"/>
<path d="M66.1943 6.43746C66.5407 6.43746 66.8212 6.15693 66.8212 5.81053C66.8212 5.46413 66.5407 5.18359 66.1943 5.18359C65.8479 5.18359 65.5674 5.46413 65.5674 5.81053C65.5674 6.15693 65.8479 6.43746 66.1943 6.43746Z" fill="#03549B"/>
<path d="M64.5088 6.43746C64.8552 6.43746 65.1357 6.15693 65.1357 5.81053C65.1357 5.46413 64.8552 5.18359 64.5088 5.18359C64.1624 5.18359 63.8818 5.46413 63.8818 5.81053C63.8818 6.15693 64.1624 6.43746 64.5088 6.43746Z" fill="#03549B"/>
<path d="M85.0215 5.24923C85.3679 5.24923 85.6484 4.9687 85.6484 4.6223C85.6484 4.2759 85.3679 3.99536 85.0215 3.99536C84.6751 3.99536 84.3945 4.2759 84.3945 4.6223C84.3945 4.9687 84.6751 5.24923 85.0215 5.24923Z" fill="#03549B"/>
<path d="M86.707 5.21774C87.0534 5.21774 87.334 4.9372 87.334 4.5908C87.334 4.2444 87.0534 3.96387 86.707 3.96387C86.3606 3.96387 86.0801 4.2444 86.0801 4.5908C86.0777 4.9372 86.3582 5.21774 86.707 5.21774Z" fill="#03549B"/>
<path d="M103.917 5.41598C104.263 5.41598 104.544 5.13544 104.544 4.78904C104.544 4.44264 104.263 4.16211 103.917 4.16211C103.571 4.16211 103.29 4.44264 103.29 4.78904C103.29 5.13544 103.571 5.41598 103.917 5.41598Z" fill="#03549B"/>
<path d="M112.502 14.9485C112.502 15.2778 112.238 15.5754 111.875 15.5754C111.512 15.5754 111.248 15.3119 111.248 14.9485C111.248 14.6191 111.512 14.3215 111.875 14.3215C112.238 14.3215 112.502 14.6191 112.502 14.9485Z" fill="#03549B"/>
<path d="M120.203 1.58799L120.006 2.01733C119.51 2.08319 118.981 2.18321 118.454 2.51253L118.42 2.47838L118.617 2.14906C118.683 2.0832 118.783 2.01733 118.849 1.98318V1.94902C118.586 1.84901 118.386 1.68556 118.386 1.42211C118.386 1.15865 118.552 0.961055 118.683 0.829325C118.881 0.631731 119.213 0.5 119.41 0.5C119.608 0.5 119.84 0.631731 119.84 0.829325C119.84 0.961055 119.774 1.09278 119.642 1.22451H119.576C119.542 1.1245 119.51 1.02692 119.444 0.992767C119.379 0.926902 119.313 0.892749 119.213 0.892749C119.081 0.892749 118.915 0.958616 118.849 1.02448C118.783 1.05863 118.718 1.1245 118.718 1.19036C118.718 1.29038 118.783 1.38795 118.883 1.45382C119.015 1.55384 119.247 1.6197 119.444 1.6197C119.676 1.6197 119.974 1.58555 120.171 1.55384L120.203 1.58799Z" fill="#03549B"/>
<path d="M19.818 0.629395C8.88442 0.629395 0 9.50406 0 20.4254C0 31.3467 8.88442 40.2214 19.818 40.2214C30.7515 40.2214 39.6359 31.3467 39.6359 20.4254C39.6359 9.50649 30.7515 0.629395 19.818 0.629395ZM37.2258 21.6134C37.2258 21.6134 27.8437 27.5193 25.7311 28.0145C25.7311 28.0145 22.394 27.8486 20.2815 28.4438C20.2815 28.4438 15.7221 29.8294 13.7413 29.1049C13.7413 29.1049 18.3982 26.4313 18.6641 25.6726C18.6641 25.6726 19.6887 24.8481 17.8713 24.5505C17.8713 24.5505 10.5042 23.7577 7.23536 24.5163C7.23536 24.5163 2.61019 25.4067 1.58807 24.3187C1.58807 24.3187 9.3845 23.4284 13.3144 21.2841C13.3144 21.2841 15.7246 19.7668 19.5252 20.1619L22.6306 20.3595C22.6306 20.3595 26.5947 10.8897 25.736 4.65446C25.736 4.65446 32.969 4.22512 32.7055 9.34062C32.7055 9.34062 32.9689 12.4094 30.1953 17.5225C30.1953 17.5225 28.3779 21.0865 31.5492 20.9865H37.033C37.0599 21.0206 37.9186 21.0523 37.2258 21.6134Z" fill="#917835"/>
<path d="M114.551 6.66914L108.904 6.60327C106.196 7.29607 106.294 9.5062 106.294 9.73795L106.328 9.86967L108.706 9.83552L108.772 7.8547L114.585 7.88885C115.146 8.18647 115.212 8.6158 115.212 8.6158C115.212 8.6158 115.246 10.0356 115.246 10.7942C115.246 10.8284 115.246 10.9259 115.246 10.9601C115.212 11.6871 114.454 11.8188 114.454 11.8188H105.072L105.106 6.90332L103.223 8.19134V11.8212C103.223 11.8212 102.1 11.8212 101.273 11.8212C100.612 11.8212 100.151 11.8212 100.446 11.7212C100.546 11.6871 100.612 11.6553 100.678 11.5895C101.208 11.1284 101.371 9.87455 101.371 9.87455C101.603 7.2668 99.0267 6.80574 99.0267 6.80574L92.5524 6.73988C90.3057 7.39853 90.4375 9.94042 90.4375 9.94042H92.8159V7.79615H93.2111H98.2973H98.9901C98.9901 7.79615 99.5512 7.96204 99.7488 8.42309V11.2284C99.7488 11.2284 99.7829 11.953 98.4608 11.8554C98.2632 11.8554 90.1033 11.8554 90.1033 11.8554C89.508 11.7895 89.1787 11.2284 89.1787 11.2284V6.8399H84.0925C81.9116 7.56441 81.9458 9.67696 81.9458 9.67696C81.6823 12.2189 84.3901 12.9092 84.3901 12.9092H86.7344C87.4272 12.8433 88.2542 12.0847 88.2542 12.0847C88.8494 12.9434 90.235 12.9092 90.235 12.9092H103.579C103.579 12.9092 104.074 12.8751 104.14 12.414L104.206 12.0188L104.24 12.2506C104.306 12.7775 104.867 12.8775 104.867 12.8775H114.942C116.957 12.3164 116.957 10.2039 116.957 10.2039C117.193 7.32778 114.551 6.66914 114.551 6.66914ZM87.5297 11.0577C87.0662 11.7505 85.7464 11.8163 85.7464 11.8163C84.6243 11.8822 83.8632 11.2236 83.8632 11.2236C83.3338 10.5308 83.368 9.73795 83.4997 9.27689C83.7632 8.25477 84.4243 8.12304 84.4243 8.12304L87.5955 8.08889L87.5297 11.0577Z" fill="#03549B"/>
</g>
</g>
<defs>
<filter id="filter0_d_0_1" x="-32" y="-35.5" width="872" height="318.5" filterUnits="userSpaceOnUse" color-interpolation-filters="sRGB">
<feFlood flood-opacity="0" result="BackgroundImageFix"/>
<feColorMatrix in="SourceAlpha" type="matrix" values="0 0 0 0 0 0 0 0 0 0 0 0 0 0 0 0 0 0 127 0" result="hardAlpha"/>
<feOffset dy="4"/>
<feGaussianBlur stdDeviation="8"/>
<feComposite in2="hardAlpha" operator="out"/>
<feColorMatrix type="matrix" values="0 0 0 0 0.0666667 0 0 0 0 0.133333 0 0 0 0 0.0666667 0 0 0 0.05 0"/>
<feBlend mode="normal" in2="BackgroundImageFix" result="effect1_dropShadow_0_1"/>
<feBlend mode="normal" in="SourceGraphic" in2="effect1_dropShadow_0_1" result="shape"/>
</filter>
<clipPath id="clip0_0_1">
<rect width="1440" height="2408" fill="white" transform="translate(-503 -775)"/>
</clipPath>
</defs>
</svg>
