<svg width="18" height="18" viewBox="0 0 18 18" fill="none" xmlns="http://www.w3.org/2000/svg">
<path d="M18 3.85708C18 3.1751 17.7291 2.52105 17.2468 2.03881C16.7646 1.55657 16.1106 1.28566 15.4286 1.28566H14.7857V0.660879C14.7857 0.314941 14.5197 0.0180217 14.1738 0.000744902C14.0869 -0.00344299 14 0.0100599 13.9185 0.0404356C13.8369 0.0708113 13.7624 0.117427 13.6994 0.177459C13.6364 0.23749 13.5862 0.309687 13.552 0.389675C13.5177 0.469664 13.5 0.555777 13.5 0.642798V1.28566H4.5V0.660879C4.5 0.314941 4.23402 0.0180217 3.88808 0.000744902C3.80116 -0.00344299 3.71429 0.0100599 3.63275 0.0404356C3.5512 0.0708113 3.47667 0.117427 3.41367 0.177459C3.35067 0.23749 3.30051 0.309687 3.26624 0.389675C3.23197 0.469664 3.21429 0.555777 3.21429 0.642798V1.28566H2.57143C1.88944 1.28566 1.23539 1.55657 0.753154 2.03881C0.270918 2.52105 0 3.1751 0 3.85708V4.33923C0 4.38185 0.0169324 4.42273 0.0470722 4.45287C0.0772119 4.48301 0.11809 4.49994 0.160714 4.49994H17.8393C17.8819 4.49994 17.9228 4.48301 17.9529 4.45287C17.9831 4.42273 18 4.38185 18 4.33923V3.85708ZM0 15.4285C0 16.1105 0.270918 16.7645 0.753154 17.2468C1.23539 17.729 1.88944 17.9999 2.57143 17.9999H15.4286C16.1106 17.9999 16.7646 17.729 17.2468 17.2468C17.7291 16.7645 18 16.1105 18 15.4285V5.90619C18 5.87422 17.9873 5.84356 17.9647 5.82096C17.9421 5.79835 17.9114 5.78566 17.8795 5.78566H0.120536C0.0885677 5.78566 0.057909 5.79835 0.0353042 5.82096C0.0126993 5.84356 0 5.87422 0 5.90619V15.4285ZM13.8214 7.07137C14.0121 7.07137 14.1986 7.12792 14.3572 7.23388C14.5157 7.33984 14.6393 7.49044 14.7123 7.66664C14.7853 7.84284 14.8044 8.03673 14.7672 8.22378C14.73 8.41083 14.6381 8.58265 14.5033 8.71751C14.3684 8.85237 14.1966 8.94421 14.0096 8.98141C13.8225 9.01862 13.6286 8.99952 13.4524 8.92654C13.2762 8.85355 13.1256 8.72996 13.0197 8.57138C12.9137 8.41281 12.8571 8.22637 12.8571 8.03566C12.8571 7.77991 12.9587 7.53464 13.1396 7.3538C13.3204 7.17296 13.5657 7.07137 13.8214 7.07137ZM13.8214 10.2857C14.0121 10.2857 14.1986 10.3422 14.3572 10.4482C14.5157 10.5541 14.6393 10.7047 14.7123 10.8809C14.7853 11.0571 14.8044 11.251 14.7672 11.4381C14.73 11.6251 14.6381 11.7969 14.5033 11.9318C14.3684 12.0667 14.1966 12.1585 14.0096 12.1957C13.8225 12.2329 13.6286 12.2138 13.4524 12.1408C13.2762 12.0678 13.1256 11.9442 13.0197 11.7857C12.9137 11.6271 12.8571 11.4407 12.8571 11.2499C12.8571 10.9942 12.9587 10.7489 13.1396 10.5681C13.3204 10.3872 13.5657 10.2857 13.8214 10.2857ZM10.6071 7.07137C10.7979 7.07137 10.9843 7.12792 11.1429 7.23388C11.3014 7.33984 11.425 7.49044 11.498 7.66664C11.571 7.84284 11.5901 8.03673 11.5529 8.22378C11.5157 8.41083 11.4239 8.58265 11.289 8.71751C11.1541 8.85237 10.9823 8.94421 10.7953 8.98141C10.6082 9.01862 10.4143 8.99952 10.2381 8.92654C10.0619 8.85355 9.91133 8.72996 9.80537 8.57138C9.69941 8.41281 9.64286 8.22637 9.64286 8.03566C9.64286 7.77991 9.74445 7.53464 9.92529 7.3538C10.1061 7.17296 10.3514 7.07137 10.6071 7.07137ZM10.6071 10.2857C10.7979 10.2857 10.9843 10.3422 11.1429 10.4482C11.3014 10.5541 11.425 10.7047 11.498 10.8809C11.571 11.0571 11.5901 11.251 11.5529 11.4381C11.5157 11.6251 11.4239 11.7969 11.289 11.9318C11.1541 12.0667 10.9823 12.1585 10.7953 12.1957C10.6082 12.2329 10.4143 12.2138 10.2381 12.1408C10.0619 12.0678 9.91133 11.9442 9.80537 11.7857C9.69941 11.6271 9.64286 11.4407 9.64286 11.2499C9.64286 10.9942 9.74445 10.7489 9.92529 10.5681C10.1061 10.3872 10.3514 10.2857 10.6071 10.2857ZM10.6071 13.4999C10.7979 13.4999 10.9843 13.5565 11.1429 13.6625C11.3014 13.7684 11.425 13.919 11.498 14.0952C11.571 14.2714 11.5901 14.4653 11.5529 14.6523C11.5157 14.8394 11.4239 15.0112 11.289 15.1461C11.1541 15.2809 10.9823 15.3728 10.7953 15.41C10.6082 15.4472 10.4143 15.4281 10.2381 15.3551C10.0619 15.2821 9.91133 15.1585 9.80537 15C9.69941 14.8414 9.64286 14.6549 9.64286 14.4642C9.64286 14.2085 9.74445 13.9632 9.92529 13.7824C10.1061 13.6015 10.3514 13.4999 10.6071 13.4999ZM7.39286 10.2857C7.58357 10.2857 7.77001 10.3422 7.92859 10.4482C8.08716 10.5541 8.21076 10.7047 8.28374 10.8809C8.35673 11.0571 8.37582 11.251 8.33861 11.4381C8.30141 11.6251 8.20957 11.7969 8.07471 11.9318C7.93985 12.0667 7.76803 12.1585 7.58098 12.1957C7.39393 12.2329 7.20004 12.2138 7.02384 12.1408C6.84764 12.0678 6.69704 11.9442 6.59108 11.7857C6.48513 11.6271 6.42857 11.4407 6.42857 11.2499C6.42857 10.9942 6.53017 10.7489 6.711 10.5681C6.89184 10.3872 7.13711 10.2857 7.39286 10.2857ZM7.39286 13.4999C7.58357 13.4999 7.77001 13.5565 7.92859 13.6625C8.08716 13.7684 8.21076 13.919 8.28374 14.0952C8.35673 14.2714 8.37582 14.4653 8.33861 14.6523C8.30141 14.8394 8.20957 15.0112 8.07471 15.1461C7.93985 15.2809 7.76803 15.3728 7.58098 15.41C7.39393 15.4472 7.20004 15.4281 7.02384 15.3551C6.84764 15.2821 6.69704 15.1585 6.59108 15C6.48513 14.8414 6.42857 14.6549 6.42857 14.4642C6.42857 14.2085 6.53017 13.9632 6.711 13.7824C6.89184 13.6015 7.13711 13.4999 7.39286 13.4999ZM4.17857 10.2857C4.36929 10.2857 4.55572 10.3422 4.7143 10.4482C4.87288 10.5541 4.99647 10.7047 5.06946 10.8809C5.14244 11.0571 5.16154 11.251 5.12433 11.4381C5.08712 11.6251 4.99528 11.7969 4.86042 11.9318C4.72557 12.0667 4.55375 12.1585 4.36669 12.1957C4.17964 12.2329 3.98576 12.2138 3.80956 12.1408C3.63336 12.0678 3.48275 11.9442 3.3768 11.7857C3.27084 11.6271 3.21429 11.4407 3.21429 11.2499C3.21429 10.9942 3.31588 10.7489 3.49672 10.5681C3.67756 10.3872 3.92283 10.2857 4.17857 10.2857ZM4.17857 13.4999C4.36929 13.4999 4.55572 13.5565 4.7143 13.6625C4.87288 13.7684 4.99647 13.919 5.06946 14.0952C5.14244 14.2714 5.16154 14.4653 5.12433 14.6523C5.08712 14.8394 4.99528 15.0112 4.86042 15.1461C4.72557 15.2809 4.55375 15.3728 4.36669 15.41C4.17964 15.4472 3.98576 15.4281 3.80956 15.3551C3.63336 15.2821 3.48275 15.1585 3.3768 15C3.27084 14.8414 3.21429 14.6549 3.21429 14.4642C3.21429 14.2085 3.31588 13.9632 3.49672 13.7824C3.67756 13.6015 3.92283 13.4999 4.17857 13.4999Z" fill="#112211"/>
</svg>
