<svg width="16" height="14" viewBox="0 0 16 14" fill="none" xmlns="http://www.w3.org/2000/svg">
<path d="M14.7879 5.5813L14.7879 5.5813C14.3533 5.25905 13.8188 5.02218 13.2542 4.89439C13.1567 4.87245 13.0674 4.82323 12.9969 4.75247C12.9263 4.6817 12.8773 4.59232 12.8556 4.49475M14.7879 5.5813L3.75777 3.1612C3.75776 3.16122 3.75775 3.16124 3.75774 3.16126M14.7879 5.5813C15.566 6.15773 15.9766 6.95307 15.9766 7.88091C15.9766 8.83751 15.5955 9.6399 14.8747 10.2008C14.2377 10.6961 13.3503 10.97 12.375 10.97H8.52344V6.25716L9.63062 7.36373C9.67939 7.41247 9.7373 7.45109 9.80103 7.47738C9.86477 7.50367 9.93307 7.51711 10.002 7.51693C10.071 7.51675 10.1392 7.50295 10.2028 7.47632C10.2664 7.44969 10.3241 7.41077 10.3726 7.36178C10.5776 7.15479 10.565 6.81782 10.3603 6.61279L10.3603 6.61277L8.37001 4.62339L8.35344 4.63997L8.37 4.62339C8.27185 4.5253 8.13876 4.4702 8 4.4702C7.86124 4.4702 7.72815 4.5253 7.63 4.62339L7.62999 4.6234L5.63968 6.6134C5.44114 6.81194 5.4221 7.13648 5.61236 7.34544C5.65998 7.3979 5.71776 7.44014 5.7822 7.46961C5.84664 7.49908 5.9164 7.51516 5.98725 7.51687C6.05809 7.51859 6.12855 7.5059 6.19434 7.47957C6.26013 7.45325 6.3199 7.41384 6.37001 7.36373L7.47656 6.25718V10.97H4.25C3.12162 10.97 2.07034 10.5982 1.29 9.92442C0.473229 9.21757 0.0234375 8.24027 0.0234375 7.16841C0.0234375 6.10792 0.441194 5.17965 1.23175 4.48099C1.80454 3.97622 2.55534 3.61942 3.38776 3.45138C3.4678 3.43522 3.54294 3.40056 3.60718 3.35018C3.67141 3.29981 3.72297 3.23511 3.75774 3.16126M14.7879 5.5813L3.75774 3.16126M12.8556 4.49475L12.8784 4.48966L12.8556 4.49479C12.8556 4.49478 12.8556 4.49476 12.8556 4.49475ZM12.8556 4.49475C12.6128 3.41315 12.0904 2.48628 11.3229 1.78414L11.3229 1.78413C10.4308 0.966671 9.25092 0.516846 8 0.516846C6.90032 0.516846 5.88522 0.861475 5.06553 1.51331M5.06553 1.51331C5.06553 1.51331 5.06553 1.51331 5.06554 1.5133L5.05095 1.49499L5.06553 1.51331ZM5.06553 1.51331C4.50983 1.95592 4.06254 2.51956 3.75774 3.16126M7.52344 11.0168H8.47656V13.0065C8.47656 13.1329 8.42635 13.2541 8.33698 13.3435C8.24761 13.4329 8.12639 13.4831 8 13.4831C7.87361 13.4831 7.75239 13.4329 7.66302 13.3435C7.57365 13.2541 7.52344 13.1329 7.52344 13.0065V11.0168Z" fill="black" stroke="#112211" stroke-width="0.046875"/>
</svg>
