<svg width="22" height="23" viewBox="0 0 22 23" fill="none" xmlns="http://www.w3.org/2000/svg">
<g opacity="0.2">
<mask id="path-1-inside-1_3407_2850" fill="white">
<path d="M19.25 7.75L14 7.75L14 2.5C14 1.90326 13.7629 1.33097 13.341 0.90901C12.919 0.487053 12.3467 0.25 11.75 0.25L2.75 0.25C2.15326 0.25 1.58097 0.487053 1.15901 0.90901C0.737053 1.33097 0.5 1.90326 0.5 2.5L0.5 22C0.5 22.1989 0.579018 22.3897 0.71967 22.5303C0.860322 22.671 1.05109 22.75 1.25 22.75H6.125C6.22446 22.75 6.31984 22.7105 6.39017 22.6402C6.46049 22.5698 6.5 22.4745 6.5 22.375V19.0211C6.5 18.6175 6.81031 18.2711 7.21391 18.2509C7.31531 18.2461 7.41666 18.2618 7.5118 18.2972C7.60693 18.3327 7.69389 18.3871 7.76739 18.4571C7.84089 18.5271 7.8994 18.6114 7.93938 18.7047C7.97937 18.798 7.99999 18.8985 8 19V22.375C8 22.4745 8.03951 22.5698 8.10983 22.6402C8.18016 22.7105 8.27554 22.75 8.375 22.75L20.75 22.75C20.9489 22.75 21.1397 22.671 21.2803 22.5303C21.421 22.3897 21.5 22.1989 21.5 22L21.5 10C21.5 9.40326 21.2629 8.83097 20.841 8.40901C20.419 7.98705 19.8467 7.75 19.25 7.75ZM3.5975 19.7439C3.44217 19.7642 3.28438 19.7354 3.14627 19.6615C3.00816 19.5875 2.89667 19.4722 2.82744 19.3317C2.75822 19.1911 2.73473 19.0325 2.76028 18.8779C2.78583 18.7234 2.85914 18.5807 2.96991 18.4699C3.08068 18.3591 3.22336 18.2858 3.37791 18.2603C3.53247 18.2347 3.69114 18.2582 3.83167 18.3274C3.9722 18.3967 4.08752 18.5082 4.16145 18.6463C4.23539 18.7844 4.26422 18.9422 4.24391 19.0975C4.22247 19.2614 4.14747 19.4137 4.03057 19.5306C3.91367 19.6475 3.76142 19.7225 3.5975 19.7439ZM3.5975 15.9939C3.44217 16.0142 3.28438 15.9854 3.14627 15.9115C3.00816 15.8375 2.89667 15.7222 2.82744 15.5817C2.75822 15.4411 2.73473 15.2825 2.76028 15.1279C2.78583 14.9734 2.85914 14.8307 2.96991 14.7199C3.08068 14.6091 3.22336 14.5358 3.37791 14.5103C3.53247 14.4847 3.69114 14.5082 3.83167 14.5774C3.9722 14.6467 4.08752 14.7582 4.16145 14.8963C4.23539 15.0344 4.26422 15.1922 4.24391 15.3475C4.22247 15.5114 4.14747 15.6637 4.03057 15.7806C3.91367 15.8975 3.76142 15.9725 3.5975 15.9939ZM3.5975 12.2439C3.44217 12.2642 3.28438 12.2354 3.14627 12.1615C3.00816 12.0875 2.89667 11.9722 2.82744 11.8317C2.75822 11.6911 2.73473 11.5325 2.76028 11.3779C2.78583 11.2234 2.85914 11.0807 2.96991 10.9699C3.08068 10.8591 3.22336 10.7858 3.37791 10.7603C3.53247 10.7347 3.69114 10.7582 3.83167 10.8274C3.9722 10.8967 4.08752 11.0082 4.16145 11.1463C4.23539 11.2844 4.26422 11.4422 4.24391 11.5975C4.22247 11.7614 4.14747 11.9137 4.03057 12.0306C3.91367 12.1475 3.76142 12.2225 3.5975 12.2439ZM3.5975 8.49391C3.44217 8.51422 3.28438 8.48539 3.14627 8.41145C3.00816 8.33752 2.89667 8.2222 2.82744 8.08167C2.75822 7.94114 2.73473 7.78247 2.76028 7.62791C2.78583 7.47335 2.85914 7.33068 2.96991 7.21991C3.08068 7.10914 3.22336 7.03583 3.37791 7.01028C3.53247 6.98473 3.69114 7.00822 3.83167 7.07744C3.9722 7.14667 4.08752 7.25816 4.16145 7.39627C4.23539 7.53438 4.26422 7.69217 4.24391 7.8475C4.22247 8.01142 4.14747 8.16367 4.03057 8.28057C3.91367 8.39747 3.76142 8.47247 3.5975 8.49391ZM3.5975 4.74391C3.44217 4.76422 3.28438 4.73539 3.14627 4.66145C3.00816 4.58752 2.89667 4.4722 2.82744 4.33167C2.75822 4.19114 2.73473 4.03247 2.76028 3.87791C2.78583 3.72336 2.85914 3.58068 2.96991 3.46991C3.08068 3.35914 3.22336 3.28583 3.37791 3.26028C3.53247 3.23473 3.69114 3.25822 3.83167 3.32744C3.9722 3.39667 4.08752 3.50816 4.16145 3.64627C4.23539 3.78438 4.26422 3.94217 4.24391 4.0975C4.22247 4.26142 4.14747 4.41367 4.03057 4.53057C3.91367 4.64747 3.76142 4.72247 3.5975 4.74391ZM7.3475 15.9939C7.19217 16.0142 7.03438 15.9854 6.89627 15.9115C6.75816 15.8375 6.64667 15.7222 6.57744 15.5817C6.50822 15.4411 6.48473 15.2825 6.51028 15.1279C6.53583 14.9734 6.60914 14.8307 6.71991 14.7199C6.83068 14.6091 6.97335 14.5358 7.12791 14.5103C7.28247 14.4847 7.44114 14.5082 7.58167 14.5774C7.7222 14.6467 7.83752 14.7582 7.91145 14.8963C7.98539 15.0344 8.01422 15.1922 7.99391 15.3475C7.97247 15.5114 7.89747 15.6637 7.78057 15.7806C7.66367 15.8975 7.51142 15.9725 7.3475 15.9939ZM7.3475 12.2439C7.19217 12.2642 7.03438 12.2354 6.89627 12.1615C6.75816 12.0875 6.64667 11.9722 6.57744 11.8317C6.50822 11.6911 6.48473 11.5325 6.51028 11.3779C6.53583 11.2234 6.60914 11.0807 6.71991 10.9699C6.83068 10.8591 6.97335 10.7858 7.12791 10.7603C7.28247 10.7347 7.44114 10.7582 7.58167 10.8274C7.7222 10.8967 7.83752 11.0082 7.91145 11.1463C7.98539 11.2844 8.01422 11.4422 7.99391 11.5975C7.97247 11.7614 7.89747 11.9137 7.78057 12.0306C7.66367 12.1475 7.51142 12.2225 7.3475 12.2439ZM7.3475 8.49391C7.19217 8.51422 7.03438 8.48539 6.89627 8.41145C6.75816 8.33752 6.64667 8.2222 6.57744 8.08167C6.50822 7.94114 6.48473 7.78247 6.51028 7.62791C6.53583 7.47335 6.60914 7.33068 6.71991 7.21991C6.83068 7.10914 6.97335 7.03583 7.12791 7.01028C7.28247 6.98473 7.44114 7.00822 7.58167 7.07744C7.7222 7.14667 7.83752 7.25816 7.91145 7.39627C7.98539 7.53438 8.01422 7.69217 7.99391 7.8475C7.97247 8.01142 7.89747 8.16367 7.78057 8.28057C7.66367 8.39747 7.51142 8.47247 7.3475 8.49391ZM7.3475 4.74391C7.19217 4.76422 7.03438 4.73539 6.89627 4.66145C6.75816 4.58752 6.64667 4.4722 6.57744 4.33167C6.50822 4.19114 6.48473 4.03247 6.51028 3.87791C6.53583 3.72336 6.60914 3.58068 6.71991 3.46991C6.83068 3.35914 6.97335 3.28583 7.12791 3.26028C7.28247 3.23473 7.44114 3.25822 7.58167 3.32744C7.7222 3.39667 7.83752 3.50816 7.91145 3.64627C7.98539 3.78438 8.01422 3.94217 7.99391 4.0975C7.97247 4.26142 7.89747 4.41367 7.78057 4.53057C7.66367 4.64747 7.51142 4.72247 7.3475 4.74391ZM11.0975 19.7439C10.9422 19.7642 10.7844 19.7354 10.6463 19.6615C10.5082 19.5875 10.3967 19.4722 10.3274 19.3317C10.2582 19.1911 10.2347 19.0325 10.2603 18.8779C10.2858 18.7234 10.3591 18.5807 10.4699 18.4699C10.5807 18.3591 10.7234 18.2858 10.8779 18.2603C11.0325 18.2347 11.1911 18.2582 11.3317 18.3274C11.4722 18.3967 11.5875 18.5082 11.6615 18.6463C11.7354 18.7844 11.7642 18.9422 11.7439 19.0975C11.7225 19.2614 11.6475 19.4137 11.5306 19.5306C11.4137 19.6475 11.2614 19.7225 11.0975 19.7439ZM11.0975 15.9939C10.9422 16.0142 10.7844 15.9854 10.6463 15.9115C10.5082 15.8375 10.3967 15.7222 10.3274 15.5817C10.2582 15.4411 10.2347 15.2825 10.2603 15.1279C10.2858 14.9734 10.3591 14.8307 10.4699 14.7199C10.5807 14.6091 10.7234 14.5358 10.8779 14.5103C11.0325 14.4847 11.1911 14.5082 11.3317 14.5774C11.4722 14.6467 11.5875 14.7582 11.6615 14.8963C11.7354 15.0344 11.7642 15.1922 11.7439 15.3475C11.7225 15.5114 11.6475 15.6637 11.5306 15.7806C11.4137 15.8975 11.2614 15.9725 11.0975 15.9939ZM11.0975 12.2439C10.9422 12.2642 10.7844 12.2354 10.6463 12.1615C10.5082 12.0875 10.3967 11.9722 10.3274 11.8317C10.2582 11.6911 10.2347 11.5325 10.2603 11.3779C10.2858 11.2234 10.3591 11.0807 10.4699 10.9699C10.5807 10.8591 10.7234 10.7858 10.8779 10.7603C11.0325 10.7347 11.1911 10.7582 11.3317 10.8274C11.4722 10.8967 11.5875 11.0082 11.6615 11.1463C11.7354 11.2844 11.7642 11.4422 11.7439 11.5975C11.7225 11.7614 11.6475 11.9137 11.5306 12.0306C11.4137 12.1475 11.2614 12.2225 11.0975 12.2439ZM11.0975 8.49391C10.9422 8.51422 10.7844 8.48539 10.6463 8.41145C10.5082 8.33752 10.3967 8.2222 10.3274 8.08167C10.2582 7.94114 10.2347 7.78247 10.2603 7.62791C10.2858 7.47335 10.3591 7.33068 10.4699 7.21991C10.5807 7.10914 10.7234 7.03583 10.8779 7.01028C11.0325 6.98473 11.1911 7.00822 11.3317 7.07744C11.4722 7.14667 11.5875 7.25816 11.6615 7.39627C11.7354 7.53438 11.7642 7.69217 11.7439 7.8475C11.7225 8.01142 11.6475 8.16367 11.5306 8.28057C11.4137 8.39747 11.2614 8.47247 11.0975 8.49391ZM11.0975 4.74391C10.9422 4.76422 10.7844 4.73539 10.6463 4.66145C10.5082 4.58752 10.3967 4.4722 10.3274 4.33167C10.2582 4.19114 10.2347 4.03247 10.2603 3.87791C10.2858 3.72336 10.3591 3.58068 10.4699 3.46991C10.5807 3.35914 10.7234 3.28583 10.8779 3.26028C11.0325 3.23473 11.1911 3.25822 11.3317 3.32744C11.4722 3.39667 11.5875 3.50816 11.6615 3.64627C11.7354 3.78438 11.7642 3.94217 11.7439 4.0975C11.7225 4.26142 11.6475 4.41367 11.5306 4.53057C11.4137 4.64747 11.2614 4.72247 11.0975 4.74391ZM19.8125 21.25H14L14 9.25L19.25 9.25C19.4489 9.25 19.6397 9.32902 19.7803 9.46967C19.921 9.61032 20 9.80109 20 10L20 21.0625C20 21.1122 19.9802 21.1599 19.9451 21.1951C19.9099 21.2302 19.8622 21.25 19.8125 21.25Z"/>
</mask>
<path d="M19.25 7.75L14 7.75L14 2.5C14 1.90326 13.7629 1.33097 13.341 0.90901C12.919 0.487053 12.3467 0.25 11.75 0.25L2.75 0.25C2.15326 0.25 1.58097 0.487053 1.15901 0.90901C0.737053 1.33097 0.5 1.90326 0.5 2.5L0.5 22C0.5 22.1989 0.579018 22.3897 0.71967 22.5303C0.860322 22.671 1.05109 22.75 1.25 22.75H6.125C6.22446 22.75 6.31984 22.7105 6.39017 22.6402C6.46049 22.5698 6.5 22.4745 6.5 22.375V19.0211C6.5 18.6175 6.81031 18.2711 7.21391 18.2509C7.31531 18.2461 7.41666 18.2618 7.5118 18.2972C7.60693 18.3327 7.69389 18.3871 7.76739 18.4571C7.84089 18.5271 7.8994 18.6114 7.93938 18.7047C7.97937 18.798 7.99999 18.8985 8 19V22.375C8 22.4745 8.03951 22.5698 8.10983 22.6402C8.18016 22.7105 8.27554 22.75 8.375 22.75L20.75 22.75C20.9489 22.75 21.1397 22.671 21.2803 22.5303C21.421 22.3897 21.5 22.1989 21.5 22L21.5 10C21.5 9.40326 21.2629 8.83097 20.841 8.40901C20.419 7.98705 19.8467 7.75 19.25 7.75ZM3.5975 19.7439C3.44217 19.7642 3.28438 19.7354 3.14627 19.6615C3.00816 19.5875 2.89667 19.4722 2.82744 19.3317C2.75822 19.1911 2.73473 19.0325 2.76028 18.8779C2.78583 18.7234 2.85914 18.5807 2.96991 18.4699C3.08068 18.3591 3.22336 18.2858 3.37791 18.2603C3.53247 18.2347 3.69114 18.2582 3.83167 18.3274C3.9722 18.3967 4.08752 18.5082 4.16145 18.6463C4.23539 18.7844 4.26422 18.9422 4.24391 19.0975C4.22247 19.2614 4.14747 19.4137 4.03057 19.5306C3.91367 19.6475 3.76142 19.7225 3.5975 19.7439ZM3.5975 15.9939C3.44217 16.0142 3.28438 15.9854 3.14627 15.9115C3.00816 15.8375 2.89667 15.7222 2.82744 15.5817C2.75822 15.4411 2.73473 15.2825 2.76028 15.1279C2.78583 14.9734 2.85914 14.8307 2.96991 14.7199C3.08068 14.6091 3.22336 14.5358 3.37791 14.5103C3.53247 14.4847 3.69114 14.5082 3.83167 14.5774C3.9722 14.6467 4.08752 14.7582 4.16145 14.8963C4.23539 15.0344 4.26422 15.1922 4.24391 15.3475C4.22247 15.5114 4.14747 15.6637 4.03057 15.7806C3.91367 15.8975 3.76142 15.9725 3.5975 15.9939ZM3.5975 12.2439C3.44217 12.2642 3.28438 12.2354 3.14627 12.1615C3.00816 12.0875 2.89667 11.9722 2.82744 11.8317C2.75822 11.6911 2.73473 11.5325 2.76028 11.3779C2.78583 11.2234 2.85914 11.0807 2.96991 10.9699C3.08068 10.8591 3.22336 10.7858 3.37791 10.7603C3.53247 10.7347 3.69114 10.7582 3.83167 10.8274C3.9722 10.8967 4.08752 11.0082 4.16145 11.1463C4.23539 11.2844 4.26422 11.4422 4.24391 11.5975C4.22247 11.7614 4.14747 11.9137 4.03057 12.0306C3.91367 12.1475 3.76142 12.2225 3.5975 12.2439ZM3.5975 8.49391C3.44217 8.51422 3.28438 8.48539 3.14627 8.41145C3.00816 8.33752 2.89667 8.2222 2.82744 8.08167C2.75822 7.94114 2.73473 7.78247 2.76028 7.62791C2.78583 7.47335 2.85914 7.33068 2.96991 7.21991C3.08068 7.10914 3.22336 7.03583 3.37791 7.01028C3.53247 6.98473 3.69114 7.00822 3.83167 7.07744C3.9722 7.14667 4.08752 7.25816 4.16145 7.39627C4.23539 7.53438 4.26422 7.69217 4.24391 7.8475C4.22247 8.01142 4.14747 8.16367 4.03057 8.28057C3.91367 8.39747 3.76142 8.47247 3.5975 8.49391ZM3.5975 4.74391C3.44217 4.76422 3.28438 4.73539 3.14627 4.66145C3.00816 4.58752 2.89667 4.4722 2.82744 4.33167C2.75822 4.19114 2.73473 4.03247 2.76028 3.87791C2.78583 3.72336 2.85914 3.58068 2.96991 3.46991C3.08068 3.35914 3.22336 3.28583 3.37791 3.26028C3.53247 3.23473 3.69114 3.25822 3.83167 3.32744C3.9722 3.39667 4.08752 3.50816 4.16145 3.64627C4.23539 3.78438 4.26422 3.94217 4.24391 4.0975C4.22247 4.26142 4.14747 4.41367 4.03057 4.53057C3.91367 4.64747 3.76142 4.72247 3.5975 4.74391ZM7.3475 15.9939C7.19217 16.0142 7.03438 15.9854 6.89627 15.9115C6.75816 15.8375 6.64667 15.7222 6.57744 15.5817C6.50822 15.4411 6.48473 15.2825 6.51028 15.1279C6.53583 14.9734 6.60914 14.8307 6.71991 14.7199C6.83068 14.6091 6.97335 14.5358 7.12791 14.5103C7.28247 14.4847 7.44114 14.5082 7.58167 14.5774C7.7222 14.6467 7.83752 14.7582 7.91145 14.8963C7.98539 15.0344 8.01422 15.1922 7.99391 15.3475C7.97247 15.5114 7.89747 15.6637 7.78057 15.7806C7.66367 15.8975 7.51142 15.9725 7.3475 15.9939ZM7.3475 12.2439C7.19217 12.2642 7.03438 12.2354 6.89627 12.1615C6.75816 12.0875 6.64667 11.9722 6.57744 11.8317C6.50822 11.6911 6.48473 11.5325 6.51028 11.3779C6.53583 11.2234 6.60914 11.0807 6.71991 10.9699C6.83068 10.8591 6.97335 10.7858 7.12791 10.7603C7.28247 10.7347 7.44114 10.7582 7.58167 10.8274C7.7222 10.8967 7.83752 11.0082 7.91145 11.1463C7.98539 11.2844 8.01422 11.4422 7.99391 11.5975C7.97247 11.7614 7.89747 11.9137 7.78057 12.0306C7.66367 12.1475 7.51142 12.2225 7.3475 12.2439ZM7.3475 8.49391C7.19217 8.51422 7.03438 8.48539 6.89627 8.41145C6.75816 8.33752 6.64667 8.2222 6.57744 8.08167C6.50822 7.94114 6.48473 7.78247 6.51028 7.62791C6.53583 7.47335 6.60914 7.33068 6.71991 7.21991C6.83068 7.10914 6.97335 7.03583 7.12791 7.01028C7.28247 6.98473 7.44114 7.00822 7.58167 7.07744C7.7222 7.14667 7.83752 7.25816 7.91145 7.39627C7.98539 7.53438 8.01422 7.69217 7.99391 7.8475C7.97247 8.01142 7.89747 8.16367 7.78057 8.28057C7.66367 8.39747 7.51142 8.47247 7.3475 8.49391ZM7.3475 4.74391C7.19217 4.76422 7.03438 4.73539 6.89627 4.66145C6.75816 4.58752 6.64667 4.4722 6.57744 4.33167C6.50822 4.19114 6.48473 4.03247 6.51028 3.87791C6.53583 3.72336 6.60914 3.58068 6.71991 3.46991C6.83068 3.35914 6.97335 3.28583 7.12791 3.26028C7.28247 3.23473 7.44114 3.25822 7.58167 3.32744C7.7222 3.39667 7.83752 3.50816 7.91145 3.64627C7.98539 3.78438 8.01422 3.94217 7.99391 4.0975C7.97247 4.26142 7.89747 4.41367 7.78057 4.53057C7.66367 4.64747 7.51142 4.72247 7.3475 4.74391ZM11.0975 19.7439C10.9422 19.7642 10.7844 19.7354 10.6463 19.6615C10.5082 19.5875 10.3967 19.4722 10.3274 19.3317C10.2582 19.1911 10.2347 19.0325 10.2603 18.8779C10.2858 18.7234 10.3591 18.5807 10.4699 18.4699C10.5807 18.3591 10.7234 18.2858 10.8779 18.2603C11.0325 18.2347 11.1911 18.2582 11.3317 18.3274C11.4722 18.3967 11.5875 18.5082 11.6615 18.6463C11.7354 18.7844 11.7642 18.9422 11.7439 19.0975C11.7225 19.2614 11.6475 19.4137 11.5306 19.5306C11.4137 19.6475 11.2614 19.7225 11.0975 19.7439ZM11.0975 15.9939C10.9422 16.0142 10.7844 15.9854 10.6463 15.9115C10.5082 15.8375 10.3967 15.7222 10.3274 15.5817C10.2582 15.4411 10.2347 15.2825 10.2603 15.1279C10.2858 14.9734 10.3591 14.8307 10.4699 14.7199C10.5807 14.6091 10.7234 14.5358 10.8779 14.5103C11.0325 14.4847 11.1911 14.5082 11.3317 14.5774C11.4722 14.6467 11.5875 14.7582 11.6615 14.8963C11.7354 15.0344 11.7642 15.1922 11.7439 15.3475C11.7225 15.5114 11.6475 15.6637 11.5306 15.7806C11.4137 15.8975 11.2614 15.9725 11.0975 15.9939ZM11.0975 12.2439C10.9422 12.2642 10.7844 12.2354 10.6463 12.1615C10.5082 12.0875 10.3967 11.9722 10.3274 11.8317C10.2582 11.6911 10.2347 11.5325 10.2603 11.3779C10.2858 11.2234 10.3591 11.0807 10.4699 10.9699C10.5807 10.8591 10.7234 10.7858 10.8779 10.7603C11.0325 10.7347 11.1911 10.7582 11.3317 10.8274C11.4722 10.8967 11.5875 11.0082 11.6615 11.1463C11.7354 11.2844 11.7642 11.4422 11.7439 11.5975C11.7225 11.7614 11.6475 11.9137 11.5306 12.0306C11.4137 12.1475 11.2614 12.2225 11.0975 12.2439ZM11.0975 8.49391C10.9422 8.51422 10.7844 8.48539 10.6463 8.41145C10.5082 8.33752 10.3967 8.2222 10.3274 8.08167C10.2582 7.94114 10.2347 7.78247 10.2603 7.62791C10.2858 7.47335 10.3591 7.33068 10.4699 7.21991C10.5807 7.10914 10.7234 7.03583 10.8779 7.01028C11.0325 6.98473 11.1911 7.00822 11.3317 7.07744C11.4722 7.14667 11.5875 7.25816 11.6615 7.39627C11.7354 7.53438 11.7642 7.69217 11.7439 7.8475C11.7225 8.01142 11.6475 8.16367 11.5306 8.28057C11.4137 8.39747 11.2614 8.47247 11.0975 8.49391ZM11.0975 4.74391C10.9422 4.76422 10.7844 4.73539 10.6463 4.66145C10.5082 4.58752 10.3967 4.4722 10.3274 4.33167C10.2582 4.19114 10.2347 4.03247 10.2603 3.87791C10.2858 3.72336 10.3591 3.58068 10.4699 3.46991C10.5807 3.35914 10.7234 3.28583 10.8779 3.26028C11.0325 3.23473 11.1911 3.25822 11.3317 3.32744C11.4722 3.39667 11.5875 3.50816 11.6615 3.64627C11.7354 3.78438 11.7642 3.94217 11.7439 4.0975C11.7225 4.26142 11.6475 4.41367 11.5306 4.53057C11.4137 4.64747 11.2614 4.72247 11.0975 4.74391ZM19.8125 21.25H14L14 9.25L19.25 9.25C19.4489 9.25 19.6397 9.32902 19.7803 9.46967C19.921 9.61032 20 9.80109 20 10L20 21.0625C20 21.1122 19.9802 21.1599 19.9451 21.1951C19.9099 21.2302 19.8622 21.25 19.8125 21.25Z" fill="#112211" stroke="#112211" stroke-width="0.09375" mask="url(#path-1-inside-1_3407_2850)"/>
</g>
</svg>
