<svg width="17" height="17" viewBox="0 0 17 17" fill="none" xmlns="http://www.w3.org/2000/svg">
<path d="M8.49787 5.66546C6.93707 5.66546 5.66333 6.9392 5.66333 8.5C5.66333 10.0608 6.93707 11.3345 8.49787 11.3345C10.0587 11.3345 11.3324 10.0608 11.3324 8.5C11.3324 6.9392 10.0587 5.66546 8.49787 5.66546ZM16.9994 8.5C16.9994 7.32621 17.01 6.16305 16.9441 4.99138C16.8782 3.63046 16.5677 2.42264 15.5725 1.42747C14.5752 0.430173 13.3695 0.121839 12.0086 0.0559198C10.8348 -0.00999972 9.67167 0.000632496 8.5 0.000632496C7.32621 0.000632496 6.16305 -0.00999972 4.99138 0.0559198C3.63046 0.121839 2.42264 0.432299 1.42747 1.42747C0.430173 2.42477 0.121839 3.63046 0.0559198 4.99138C-0.00999972 6.16517 0.000632496 7.32833 0.000632496 8.5C0.000632496 9.67167 -0.00999972 10.837 0.0559198 12.0086C0.121839 13.3695 0.432299 14.5774 1.42747 15.5725C2.42477 16.5698 3.63046 16.8782 4.99138 16.9441C6.16517 17.01 7.32833 16.9994 8.5 16.9994C9.67379 16.9994 10.837 17.01 12.0086 16.9441C13.3695 16.8782 14.5774 16.5677 15.5725 15.5725C16.5698 14.5752 16.8782 13.3695 16.9441 12.0086C17.0121 10.837 16.9994 9.67379 16.9994 8.5ZM8.49787 12.8613C6.08437 12.8613 4.13655 10.9135 4.13655 8.5C4.13655 6.08649 6.08437 4.13868 8.49787 4.13868C10.9114 4.13868 12.8592 6.08649 12.8592 8.5C12.8592 10.9135 10.9114 12.8613 8.49787 12.8613ZM13.0378 4.97862C12.4743 4.97862 12.0193 4.52356 12.0193 3.96006C12.0193 3.39655 12.4743 2.94149 13.0378 2.94149C13.6013 2.94149 14.0564 3.39655 14.0564 3.96006C14.0565 4.09386 14.0303 4.22639 13.9792 4.35004C13.9281 4.4737 13.853 4.58605 13.7584 4.68067C13.6638 4.77528 13.5515 4.8503 13.4278 4.90143C13.3041 4.95256 13.1716 4.97879 13.0378 4.97862Z" fill="#112211"/>
</svg>
