<svg width="16" height="19" viewBox="0 0 16 19" fill="none" xmlns="http://www.w3.org/2000/svg">
<path d="M15.4325 1.94937V1.25C15.4325 1.05109 15.3535 0.860322 15.2128 0.71967C15.0722 0.579018 14.8814 0.5 14.6825 0.5H1.31747C1.11856 0.5 0.927796 0.579018 0.787143 0.71967C0.646491 0.860322 0.567474 1.05109 0.567474 1.25V1.94937C0.499036 2.48234 0.11513 6.20281 2.29857 8.73172C3.46435 10.0817 5.12794 10.8341 7.24997 10.9752V17H3.49997C3.30106 17 3.1103 17.079 2.96964 17.2197C2.82899 17.3603 2.74997 17.5511 2.74997 17.75C2.74997 17.9489 2.82899 18.1397 2.96964 18.2803C3.1103 18.421 3.30106 18.5 3.49997 18.5H12.5C12.6989 18.5 12.8897 18.421 13.0303 18.2803C13.171 18.1397 13.25 17.9489 13.25 17.75C13.25 17.5511 13.171 17.3603 13.0303 17.2197C12.8897 17.079 12.6989 17 12.5 17H8.74997V10.9752C10.872 10.8345 12.5356 10.0817 13.7014 8.73172C15.8848 6.20281 15.5 2.48234 15.4325 1.94937ZM2.05904 2.10922C2.06466 2.07308 2.06748 2.03657 2.06747 2H13.9325C13.9325 2.03657 13.9353 2.07308 13.9409 2.10922C14.0219 2.82052 14.0219 3.5387 13.9409 4.25H2.06185C1.9809 3.53875 1.97996 2.82067 2.05904 2.10922Z" fill="#112211"/>
</svg>
