<svg width="12" height="17" viewBox="0 0 12 17" fill="none" xmlns="http://www.w3.org/2000/svg">
<path d="M6 0.625C2.89852 0.625 0.375 3.03848 0.375 6.00391C0.375 7.41613 1.01871 9.29418 2.2882 11.586C3.30773 13.4261 4.48723 15.09 5.1007 15.918C5.20437 16.0594 5.33991 16.1745 5.49633 16.2538C5.65276 16.3331 5.82567 16.3744 6.00105 16.3744C6.17644 16.3744 6.34935 16.3331 6.50578 16.2538C6.6622 16.1745 6.79774 16.0594 6.90141 15.918C7.51383 15.09 8.69438 13.4261 9.71391 11.586C10.9813 9.29488 11.625 7.41684 11.625 6.00391C11.625 3.03848 9.10148 0.625 6 0.625ZM6 8.5C5.55499 8.5 5.11998 8.36804 4.74997 8.12081C4.37996 7.87357 4.09157 7.52217 3.92127 7.11104C3.75097 6.6999 3.70642 6.2475 3.79323 5.81105C3.88005 5.37459 4.09434 4.97368 4.40901 4.65901C4.72368 4.34434 5.12459 4.13005 5.56105 4.04323C5.9975 3.95642 6.4499 4.00097 6.86104 4.17127C7.27217 4.34157 7.62357 4.62996 7.87081 4.99997C8.11804 5.36998 8.25 5.80499 8.25 6.25C8.24935 6.84654 8.01209 7.41846 7.59027 7.84027C7.16846 8.26209 6.59654 8.49935 6 8.5Z" fill="#112211"/>
</svg>
