<svg width="20" height="20" viewBox="0 0 20 20" fill="none" xmlns="http://www.w3.org/2000/svg">
<path d="M0 13.5C1.67 12.75 3.33 12 5 11.67V3.5C5 2.70435 5.31607 1.94129 5.87868 1.37868C6.44129 0.816071 7.20435 0.5 8 0.5C9.31 0.5 10.42 1.33 10.83 2.5H8C7.73478 2.5 7.48043 2.60536 7.29289 2.79289C7.10536 2.98043 7 3.23478 7 3.5V4.5H12V3.5C12 2.70435 12.3161 1.94129 12.8787 1.37868C13.4413 0.816071 14.2044 0.5 15 0.5C16.31 0.5 17.42 1.33 17.83 2.5H15C14.7348 2.5 14.4804 2.60536 14.2929 2.79289C14.1054 2.98043 14 3.23478 14 3.5V13.44C16 13.12 18 11.5 20 11.5V13.5C17.78 13.5 15.56 15.5 13.33 15.5C11.11 15.5 8.89 13.5 6.67 13.5C4.44 13.5 2.22 14.5 0 15.5V13.5ZM12 6.5H7V8.5H12V6.5ZM12 10.5H7V11.5C8.67 11.66 10.33 12.81 12 13.29V10.5ZM0 17.5C2.22 16.5 4.44 15.5 6.67 15.5C8.89 15.5 11.11 17.5 13.33 17.5C15.56 17.5 17.78 15.5 20 15.5V17.5C17.78 17.5 15.56 19.5 13.33 19.5C11.11 19.5 8.89 17.5 6.67 17.5C4.44 17.5 2.22 18.5 0 19.5V17.5Z" fill="#112211"/>
</svg>
