<svg width="18" height="21" viewBox="0 0 18 21" fill="none" xmlns="http://www.w3.org/2000/svg">
<path d="M13 4.5V10.5C13 11.6 13.9 12.5 15 12.5H16V19.5C16 20.05 16.45 20.5 17 20.5C17.55 20.5 18 20.05 18 19.5V1.63C18 0.98 17.39 0.5 16.76 0.65C14.6 1.18 13 3.01 13 4.5ZM8 7.5H6V1.5C6 0.95 5.55 0.5 5 0.5C4.45 0.5 4 0.95 4 1.5V7.5H2V1.5C2 0.95 1.55 0.5 1 0.5C0.45 0.5 0 0.95 0 1.5V7.5C0 9.71 1.79 11.5 4 11.5V19.5C4 20.05 4.45 20.5 5 20.5C5.55 20.5 6 20.05 6 19.5V11.5C8.21 11.5 10 9.71 10 7.5V1.5C10 0.95 9.55 0.5 9 0.5C8.45 0.5 8 0.95 8 1.5V7.5Z" fill="#112211"/>
</svg>
