<svg width="20" height="16" viewBox="0 0 20 16" fill="none" xmlns="http://www.w3.org/2000/svg">
<path d="M1 15.5C0.716667 15.5 0.479333 15.404 0.288 15.212C0.0960001 15.0207 0 14.7833 0 14.5C0 14.2167 0.0960001 13.9793 0.288 13.788C0.479333 13.596 0.716667 13.5 1 13.5H19C19.2833 13.5 19.5207 13.596 19.712 13.788C19.904 13.9793 20 14.2167 20 14.5C20 14.7833 19.904 15.0207 19.712 15.212C19.5207 15.404 19.2833 15.5 19 15.5H1ZM1 12.5V11.5C1 9.36667 1.65433 7.48333 2.963 5.85C4.271 4.21667 5.95 3.18333 8 2.75V2.5C8 1.95 8.196 1.47933 8.588 1.088C8.97933 0.696 9.45 0.5 10 0.5C10.55 0.5 11.021 0.696 11.413 1.088C11.8043 1.47933 12 1.95 12 2.5V2.75C14.0667 3.18333 15.75 4.21667 17.05 5.85C18.35 7.48333 19 9.36667 19 11.5V12.5H1Z" fill="#112211"/>
</svg>
