<svg width="20" height="20" viewBox="0 0 20 20" fill="none" xmlns="http://www.w3.org/2000/svg">
<path d="M10.9999 18.35C11.0333 18.6666 10.9293 18.9376 10.6879 19.163C10.4459 19.3876 10.1749 19.475 9.87494 19.425C6.97494 18.9916 4.67494 17.8706 2.97494 16.062C1.27494 14.254 0.308275 11.7916 0.0749414 8.67498C0.0416081 8.34164 0.137275 8.06231 0.361941 7.83698C0.587275 7.61231 0.866608 7.52497 1.19994 7.57498C4.24994 7.99164 6.59994 9.16664 8.24994 11.1C9.89994 13.0333 10.8166 15.45 10.9999 18.35ZM9.22494 0.474975C9.42494 0.191642 9.68727 0.053975 10.0119 0.061975C10.3373 0.0706417 10.5999 0.216642 10.7999 0.499975C11.5499 1.54997 12.2043 2.69997 12.7629 3.94997C13.3209 5.19998 13.6583 6.24998 13.7749 7.09998C13.1249 7.39998 12.3999 7.88731 11.5999 8.56198C10.7999 9.23731 10.2749 9.75831 10.0249 10.125C9.79161 9.75831 9.25428 9.22064 8.41294 8.51198C7.57094 7.80398 6.85827 7.33331 6.27494 7.09998C6.40827 6.26664 6.74594 5.21231 7.28794 3.93697C7.82927 2.66231 8.47494 1.50831 9.22494 0.474975ZM18.8749 7.57498C19.1916 7.54164 19.4583 7.62897 19.6749 7.83698C19.8916 8.04564 19.9916 8.31664 19.9749 8.64997C19.8416 11.3333 19.1126 13.5126 17.7879 15.188C16.4626 16.8626 14.8583 18.0333 12.9749 18.7C12.9416 17.6833 12.7876 16.5293 12.5129 15.238C12.2376 13.946 11.8083 12.8333 11.2249 11.9C11.9416 10.8 13.0043 9.84998 14.4129 9.04998C15.8209 8.24998 17.3083 7.75831 18.8749 7.57498Z" fill="#112211"/>
</svg>
