<svg width="20" height="18" viewBox="0 0 20 18" fill="none" xmlns="http://www.w3.org/2000/svg">
<path d="M18.25 0.5H2.5C2.30109 0.5 2.11032 0.579018 1.96967 0.71967C1.82902 0.860322 1.75 1.05109 1.75 1.25V10.25C1.75136 11.4431 2.22591 12.5869 3.06953 13.4305C3.91314 14.2741 5.05694 14.7486 6.25 14.75H11.5C12.6931 14.7486 13.8369 14.2741 14.6805 13.4305C15.5241 12.5869 15.9986 11.4431 16 10.25V6.5H16.8438C17.6143 6.49913 18.353 6.19266 18.8978 5.64782C19.4427 5.10298 19.7491 4.36427 19.75 3.59375V2C19.75 1.60218 19.592 1.22064 19.3107 0.93934C19.0294 0.658035 18.6478 0.5 18.25 0.5ZM18.25 3.59375C18.25 3.96671 18.1018 4.3244 17.8381 4.58812C17.5744 4.85184 17.2167 5 16.8438 5H16V2H18.25V3.59375ZM16.75 16.25H1C0.801088 16.25 0.610322 16.329 0.46967 16.4697C0.329018 16.6103 0.25 16.8011 0.25 17C0.25 17.1989 0.329018 17.3897 0.46967 17.5303C0.610322 17.671 0.801088 17.75 1 17.75H16.75C16.9489 17.75 17.1397 17.671 17.2803 17.5303C17.421 17.3897 17.5 17.1989 17.5 17C17.5 16.8011 17.421 16.6103 17.2803 16.4697C17.1397 16.329 16.9489 16.25 16.75 16.25Z" fill="#112211"/>
</svg>
