<svg width="24" height="16" viewBox="0 0 24 16" fill="none" xmlns="http://www.w3.org/2000/svg">
<path d="M0.96 0.464111C0.429912 0.464111 0 0.893903 0 1.42411V14.5761C0 15.1063 0.430128 15.5361 0.96 15.5361H23.04C23.5701 15.5361 24 15.1063 24 14.5761V1.42411C24 0.893927 23.5699 0.464111 23.04 0.464111H0.96ZM14.334 4.95586C14.9181 4.95586 15.3862 5.08488 15.6847 5.20486L15.4807 6.48811L15.3457 6.41986C15.0677 6.29988 14.7105 6.18442 14.2177 6.1926C13.6279 6.1926 13.3553 6.45571 13.3553 6.70188C13.3518 6.97925 13.6739 7.16218 14.2005 7.43611C15.0697 7.85875 15.4714 8.3712 15.4658 9.04486C15.4541 10.2741 14.426 11.0684 12.8423 11.0684C12.1666 11.0609 11.5156 10.9179 11.1637 10.7526L11.3753 9.4266L11.5695 9.52111C12.0643 9.7422 12.3847 9.83162 12.9877 9.83162C13.4208 9.83162 13.8856 9.6503 13.8893 9.25337C13.8921 8.99417 13.695 8.80937 13.1085 8.51911C12.537 8.23582 11.7794 7.76126 11.7878 6.91037C11.7967 5.7593 12.8453 4.95586 14.334 4.95586ZM2.12249 5.14411H4.55474C4.88227 5.1565 5.1467 5.26195 5.238 5.61737L5.76226 8.32337C5.76233 8.32361 5.76216 8.32459 5.76226 8.32486L5.91974 9.13562L7.39649 5.14411H8.994L6.61949 10.9866L5.02349 10.9881L3.753 6.2736C4.50895 6.67409 5.15254 7.13746 5.52526 7.77511C5.42916 7.57334 5.30254 7.34558 5.14051 7.12111C4.95182 6.8597 4.54433 6.52219 4.374 6.3786C3.78048 5.87827 2.97444 5.47418 2.10374 5.26037L2.12249 5.14411ZM9.62926 5.15086H11.1915L10.2142 10.9844H8.652L9.62926 5.15086ZM18.453 5.15086H19.6365L20.8755 10.9844H19.455C19.455 10.9844 19.3141 10.3142 19.2683 10.1099C19.045 10.1099 17.4834 10.1076 17.3077 10.1076C17.2483 10.2655 16.9853 10.9843 16.9853 10.9843H15.378L17.6513 5.63537C17.8122 5.25526 18.0865 5.15086 18.453 5.15086ZM18.5693 6.71986C18.4924 6.93684 18.3585 7.28724 18.3675 7.27186C18.3675 7.27186 17.8866 8.55442 17.7608 8.88737L19.0245 8.8866C18.9071 8.33035 18.7896 7.77411 18.672 7.2179L18.5693 6.7199V6.71986Z" fill="#1434CB"/>
</svg>
