<svg width="21" height="20" viewBox="0 0 21 20" fill="none" xmlns="http://www.w3.org/2000/svg">
<path d="M15.3103 4.06007L2.55422 16.8476L1.78125 18.7188L3.6525 17.9459L16.44 5.18976L15.3103 4.06007ZM17.8627 1.5082L17.31 2.06039L18.4397 3.19007L18.9923 2.63742C19.1374 2.4923 19.2188 2.29554 19.2188 2.09039C19.2188 1.88523 19.1374 1.68847 18.9923 1.54335L18.9572 1.5082C18.8853 1.43632 18.8 1.37931 18.7061 1.34041C18.6122 1.30152 18.5116 1.28149 18.4099 1.28149C18.3083 1.28149 18.2076 1.30152 18.1137 1.34041C18.0198 1.37931 17.9345 1.43632 17.8627 1.5082Z" stroke="black" stroke-width="2.0625" stroke-linecap="round" stroke-linejoin="round"/>
</svg>
