<svg width="22" height="22" viewBox="0 0 22 22" fill="none" xmlns="http://www.w3.org/2000/svg">
<path d="M6.95734 4.95927C6.24234 4.24427 6.24234 3.08011 6.95734 2.36511C7.67234 1.65011 8.8365 1.65011 9.5515 2.36511C10.2665 3.08011 10.2665 4.24427 9.5515 4.95927C8.82734 5.68344 7.67234 5.68344 6.95734 4.95927ZM5.49984 14.6668V7.33344C5.49984 6.82927 5.08734 6.41677 4.58317 6.41677C4.079 6.41677 3.6665 6.82927 3.6665 7.33344V14.6668C3.6665 17.1968 5.71984 19.2501 8.24984 19.2501H12.8332C13.3373 19.2501 13.7498 18.8376 13.7498 18.3334C13.7498 17.8293 13.3373 17.4168 12.8332 17.4168H8.24984C6.72817 17.4168 5.49984 16.1884 5.49984 14.6668ZM17.6732 17.7376L14.2173 14.2818C13.8782 13.9426 13.4107 13.7501 12.9248 13.7501H10.5415V10.3768C11.5407 11.1926 12.9798 11.9351 14.3915 12.2284C15.0057 12.3568 15.5832 11.8984 15.5832 11.2751C15.5832 10.7893 15.2257 10.3951 14.7398 10.3126C13.4382 10.0926 12.0998 9.38677 11.3023 8.50677L10.019 7.08594C9.84484 6.89344 9.62484 6.73761 9.3865 6.62761C9.12067 6.49927 8.81817 6.41677 8.5065 6.41677H8.479C7.34234 6.41677 6.4165 7.34261 6.4165 8.47927V13.7501C6.4165 15.2718 7.64484 16.5001 9.1665 16.5001H13.814L16.3623 19.0484C16.7198 19.4059 17.3157 19.4059 17.6732 19.0484C18.0398 18.6909 18.0398 18.1043 17.6732 17.7376Z" fill="#FF8500"/>
</svg>
