<svg width="20" height="20" viewBox="0 0 20 20" fill="none" xmlns="http://www.w3.org/2000/svg">
<path d="M13.1869 13.9149L13.2028 13.9238L13.2154 13.9107C13.4459 13.6696 13.7229 13.4778 14.0296 13.3467C14.3364 13.2157 14.6665 13.1482 15 13.1484C15.5172 13.1483 16.0215 13.3102 16.4421 13.6114C16.8626 13.9125 17.1783 14.3378 17.3449 14.8274C17.5114 15.3171 17.5205 15.8467 17.3707 16.3418C17.221 16.8369 16.9201 17.2727 16.5101 17.588C16.1001 17.9034 15.6016 18.0824 15.0847 18.1C14.5677 18.1177 14.0582 17.973 13.6277 17.6864C13.1972 17.3997 12.8672 16.9855 12.684 16.5017C12.5009 16.018 12.4739 15.489 12.6066 14.9891L12.6113 14.9716L12.5955 14.9627L6.81423 11.71L6.7984 11.7011L6.78582 11.7142C6.44373 12.0709 6.00274 12.317 5.51958 12.421C5.03642 12.525 4.5332 12.4821 4.07465 12.2977C3.61609 12.1134 3.22319 11.7961 2.94647 11.3866C2.66975 10.9771 2.52188 10.4941 2.52188 9.99992C2.52188 9.5057 2.66975 9.02278 2.94647 8.61329C3.22319 8.2038 3.61609 7.88646 4.07465 7.70211C4.5332 7.51775 5.03642 7.47481 5.51958 7.57881C6.00274 7.68281 6.44373 7.92899 6.78582 8.28568L6.7984 8.29879L6.81423 8.28988L12.5955 5.03715L12.6113 5.02824L12.6066 5.01069C12.452 4.43023 12.5143 3.81331 12.7819 3.2755C13.0495 2.73769 13.504 2.3159 14.0603 2.08914C14.6165 1.86239 15.2364 1.84622 15.8037 2.04368C16.371 2.24114 16.8469 2.63867 17.1422 3.1618C17.4374 3.68493 17.5318 4.29776 17.4076 4.88549C17.2835 5.47322 16.9493 5.99552 16.4677 6.35455C15.9861 6.71357 15.3901 6.88467 14.7914 6.83581C14.1927 6.78695 13.6323 6.52148 13.2153 6.08912L13.2027 6.07608L13.1869 6.08497L7.4057 9.3377L7.38987 9.34661L7.39454 9.36416C7.50548 9.78074 7.50548 10.2191 7.39454 10.6357L7.38987 10.6532L7.4057 10.6621L13.1869 13.9149Z" fill="black" stroke="#112211" stroke-width="0.046875"/>
</svg>
