<svg width="16" height="16" viewBox="0 0 16 16" fill="none" xmlns="http://www.w3.org/2000/svg">
<path d="M12.3125 15C12.2073 15.0004 12.1046 14.9676 12.0191 14.9062L8.00003 11.9925L3.98097 14.9062C3.8951 14.9685 3.79166 15.0019 3.68558 15.0015C3.57951 15.0011 3.47631 14.967 3.3909 14.9041C3.30549 14.8412 3.2423 14.7528 3.21046 14.6516C3.17862 14.5504 3.17978 14.4417 3.21378 14.3412L4.78128 9.69843L0.718779 6.91249C0.630782 6.85221 0.564368 6.76537 0.529239 6.66466C0.49411 6.56395 0.492107 6.45464 0.523524 6.35271C0.554941 6.25078 0.618131 6.16157 0.70386 6.09811C0.78959 6.03465 0.893367 6.00027 1.00003 5.99999H6.0119L7.5244 1.3453C7.55699 1.24481 7.62056 1.15722 7.70601 1.0951C7.79146 1.03297 7.89439 0.999512 8.00003 0.999512C8.10567 0.999512 8.2086 1.03297 8.29405 1.0951C8.3795 1.15722 8.44307 1.24481 8.47565 1.3453L9.98815 6.00155H15C15.1068 6.0015 15.2108 6.03564 15.2968 6.09898C15.3828 6.16232 15.4462 6.25152 15.4779 6.35353C15.5095 6.45554 15.5076 6.56499 15.4725 6.66586C15.4374 6.76672 15.3709 6.8537 15.2828 6.91405L11.2188 9.69843L12.7853 14.34C12.8107 14.4151 12.8179 14.4952 12.8062 14.5737C12.7945 14.6521 12.7643 14.7267 12.7181 14.7912C12.6719 14.8557 12.611 14.9082 12.5405 14.9445C12.47 14.9808 12.3918 14.9998 12.3125 15Z" fill="#FF8500"/>
</svg>
