<svg width="16" height="14" viewBox="0 0 16 14" fill="none" xmlns="http://www.w3.org/2000/svg">
<path d="M12.3124 14C12.2072 14.0004 12.1045 13.9676 12.019 13.9062L7.99991 10.9925L3.98084 13.9062C3.89498 13.9685 3.79153 14.0019 3.68546 14.0015C3.57939 14.0011 3.47619 13.967 3.39078 13.9041C3.30537 13.8412 3.24218 13.7528 3.21034 13.6516C3.1785 13.5504 3.17966 13.4417 3.21366 13.3412L4.78116 8.69843L0.718657 5.91249C0.63066 5.85221 0.564246 5.76537 0.529117 5.66466C0.493988 5.56395 0.491985 5.45464 0.523402 5.35271C0.554819 5.25078 0.618008 5.16157 0.703738 5.09811C0.789468 5.03465 0.893245 5.00027 0.999907 4.99999H6.01178L7.52428 0.345301C7.55686 0.244808 7.62044 0.157218 7.70589 0.0950954C7.79134 0.0329731 7.89426 -0.000488281 7.99991 -0.000488281C8.10555 -0.000488281 8.20848 0.0329731 8.29393 0.0950954C8.37937 0.157218 8.44295 0.244808 8.47553 0.345301L9.98803 5.00155H14.9999C15.1067 5.0015 15.2107 5.03564 15.2967 5.09898C15.3827 5.16232 15.4461 5.25152 15.4777 5.35353C15.5094 5.45554 15.5075 5.56499 15.4724 5.66586C15.4373 5.76672 15.3708 5.8537 15.2827 5.91405L11.2187 8.69843L12.7852 13.34C12.8106 13.4151 12.8177 13.4952 12.806 13.5737C12.7944 13.6521 12.7642 13.7267 12.718 13.7912C12.6718 13.8557 12.6109 13.9082 12.5404 13.9445C12.4699 13.9808 12.3917 13.9998 12.3124 14Z" fill="#FF8500"/>
</svg>
