<svg width="32" height="32" viewBox="0 0 32 32" fill="none" xmlns="http://www.w3.org/2000/svg">
<g clip-path="url(#clip0_1_2981)">
<path d="M13 32.0001C12.684 32.0017 12.375 31.9068 12.1143 31.7281C11.8536 31.5494 11.6537 31.2954 11.5413 31.0001L9.05125 24.5251C9.00082 24.3946 8.92368 24.2761 8.82476 24.1772C8.72585 24.0783 8.60736 24.0011 8.47688 23.9507L2 21.4588C1.70497 21.3456 1.4512 21.1455 1.2722 20.8851C1.0932 20.6247 0.997374 20.3161 0.997374 20.0001C0.997374 19.684 1.0932 19.3755 1.2722 19.115C1.4512 18.8546 1.70497 18.6546 2 18.5413L8.475 16.0513C8.60548 16.0009 8.72398 15.9237 8.82289 15.8248C8.9218 15.7259 8.99895 15.6074 9.04938 15.4769L11.5413 9.00007C11.6545 8.70504 11.8545 8.45127 12.115 8.27227C12.3754 8.09327 12.684 7.99744 13 7.99744C13.316 7.99744 13.6246 8.09327 13.885 8.27227C14.1455 8.45127 14.3455 8.70504 14.4588 9.00007L16.9488 15.4751C16.9992 15.6055 17.0763 15.724 17.1752 15.823C17.2742 15.9219 17.3927 15.999 17.5231 16.0494L23.9606 18.5263C24.2677 18.6401 24.5322 18.8458 24.7182 19.1153C24.9042 19.3848 25.0026 19.7051 25 20.0326C24.9952 20.3431 24.8974 20.645 24.7191 20.8993C24.5408 21.1536 24.2903 21.3485 24 21.4588L17.525 23.9488C17.3945 23.9993 17.276 24.0764 17.1771 24.1753C17.0782 24.2742 17.0011 24.3927 16.9506 24.5232L14.4588 31.0001C14.3463 31.2954 14.1464 31.5494 13.8857 31.7281C13.625 31.9068 13.316 32.0017 13 32.0001ZM5.5 11.0001C5.31473 11.0001 5.1338 10.9439 4.98106 10.839C4.82832 10.7342 4.71094 10.5855 4.64438 10.4126L3.59063 7.67257C3.56779 7.61265 3.53254 7.55823 3.4872 7.51288C3.44185 7.46753 3.38743 7.43228 3.3275 7.40945L0.587504 6.3557C0.414616 6.28912 0.265952 6.17173 0.161099 6.01899C0.0562457 5.86625 0.00012207 5.68534 0.00012207 5.50007C0.00012207 5.31481 0.0562457 5.13389 0.161099 4.98115C0.265952 4.82841 0.414616 4.71102 0.587504 4.64445L3.3275 3.5907C3.38737 3.56775 3.44174 3.53247 3.48707 3.48714C3.5324 3.4418 3.56769 3.38744 3.59063 3.32757L4.635 0.611946C4.6939 0.452073 4.79525 0.311272 4.92817 0.204677C5.06108 0.0980819 5.22053 0.0297227 5.38938 0.00694629C5.5921 -0.0176973 5.79724 0.0260393 5.97228 0.131221C6.14732 0.236402 6.28223 0.397008 6.35563 0.587571L7.40938 3.32757C7.43232 3.38744 7.46761 3.4418 7.51294 3.48714C7.55827 3.53247 7.61264 3.56775 7.6725 3.5907L10.4125 4.64445C10.5854 4.71102 10.7341 4.82841 10.8389 4.98115C10.9438 5.13389 10.9999 5.31481 10.9999 5.50007C10.9999 5.68534 10.9438 5.86625 10.8389 6.01899C10.7341 6.17173 10.5854 6.28912 10.4125 6.3557L7.6725 7.40945C7.61258 7.43228 7.55816 7.46753 7.51281 7.51288C7.46747 7.55823 7.43222 7.61265 7.40938 7.67257L6.35563 10.4126C6.28907 10.5855 6.17169 10.7342 6.01895 10.839C5.86621 10.9439 5.68528 11.0001 5.5 11.0001ZM25 16.0001C24.7979 16 24.6005 15.9387 24.4339 15.8242C24.2674 15.7098 24.1394 15.5475 24.0669 15.3588L22.6394 11.6482C22.6143 11.5828 22.5757 11.5234 22.5262 11.4739C22.4766 11.4244 22.4173 11.3858 22.3519 11.3607L18.6413 9.9332C18.4527 9.86056 18.2906 9.73252 18.1763 9.56595C18.062 9.39939 18.0008 9.2021 18.0008 9.00007C18.0008 8.79804 18.062 8.60076 18.1763 8.43419C18.2906 8.26762 18.4527 8.13959 18.6413 8.06695L22.3519 6.63945C22.4173 6.61433 22.4766 6.57577 22.5262 6.52624C22.5757 6.47671 22.6143 6.41733 22.6394 6.35195L24.0563 2.66757C24.1209 2.49334 24.2316 2.3399 24.3766 2.22357C24.5215 2.10725 24.6953 2.03238 24.8794 2.00695C25.1006 1.98017 25.3244 2.02804 25.5153 2.14297C25.7062 2.2579 25.8533 2.43329 25.9331 2.64132L27.3606 6.35195C27.3857 6.41733 27.4243 6.47671 27.4738 6.52624C27.5234 6.57577 27.5827 6.61433 27.6481 6.63945L31.3588 8.06695C31.5473 8.13959 31.7094 8.26762 31.8237 8.43419C31.938 8.60076 31.9992 8.79804 31.9992 9.00007C31.9992 9.2021 31.938 9.39939 31.8237 9.56595C31.7094 9.73252 31.5473 9.86056 31.3588 9.9332L27.6481 11.3607C27.5827 11.3858 27.5234 11.4244 27.4738 11.4739C27.4243 11.5234 27.3857 11.5828 27.3606 11.6482L25.9331 15.3588C25.8606 15.5475 25.7326 15.7098 25.5661 15.8242C25.3995 15.9387 25.2021 16 25 16.0001Z" fill="black"/>
</g>
<defs>
<clipPath id="clip0_1_2981">
<rect width="32" height="32" fill="white"/>
</clipPath>
</defs>
</svg>
