<svg width="160" height="159" viewBox="0 0 160 159" fill="none" xmlns="http://www.w3.org/2000/svg">
<rect width="160" height="159" fill="#1E1E1E"/>
<path d="M-2063 -549H4037V-565H-2063V-549ZM4109 -477V7529H4125V-477H4109ZM4037 7601H-2063V7617H4037V7601ZM-2135 7529V-477H-2151V7529H-2135ZM-2063 7601C-2102.76 7601 -2135 7568.76 -2135 7529H-2151C-2151 7577.6 -2111.6 7617 -2063 7617V7601ZM4109 7529C4109 7568.76 4076.76 7601 4037 7601V7617C4085.6 7617 4125 7577.6 4125 7529H4109ZM4037 -549C4076.76 -549 4109 -516.765 4109 -477H4125C4125 -525.601 4085.6 -565 4037 -565V-549ZM-2063 -565C-2111.6 -565 -2151 -525.601 -2151 -477H-2135C-2135 -516.764 -2102.76 -549 -2063 -549V-565Z" fill="#8DD3BB"/>
<g clip-path="url(#clip0_0_1)">
<rect width="1440" height="2408" transform="translate(-503 -457)" fill="#FAFBFC"/>
<g filter="url(#filter0_d_0_1)">
<rect x="-16" y="-24" width="840" height="286.5" rx="12" fill="white" shape-rendering="crispEdges"/>
<path fill-rule="evenodd" clip-rule="evenodd" d="M37.2469 154.442H32.5508L35.8023 148.667V140.164H40.8566V145.037L45.3678 140.164H49.6978L48.0721 141.971L40.8527 148.828L38.1484 154.442H37.2469ZM151.514 147.041H152.234C152.954 147.041 153.86 146.14 154.399 145.415L154.58 144.695C154.942 143.971 154.58 143.25 153.86 143.25H150.069L148.262 147.041H151.514ZM151.514 140.18H156.387C158.914 140.18 160.54 141.443 159.095 144.333L157.65 147.222C156.926 148.486 156.206 149.584 153.86 149.584L154.399 154.442H149.526L148.805 149.568H146.998L144.637 154.442H139.401L140.307 153.178L146.998 140.188H151.514V140.18ZM140.322 141.625L140.862 140.18H135.807L128.045 154.442H133.28L140.322 141.625ZM121.002 151.375L121.187 150.832H116.853L114.326 154.442H110.354L111.98 152.277L120.463 140.18H128.045L124.435 154.442H119.743L121.002 151.375ZM121.002 148.667H121.727L123.352 142.526L120.99 145.596L118.467 148.667H121.002ZM111.98 143.609L113.606 140.18H110.161L105.831 149.206L105.65 140.18H99.8834L93.0261 154.442H96.2736L100.604 145.415L100.962 154.442H106.56L111.976 143.609H111.98ZM85.4445 151.375L85.6217 150.832H81.4727L78.9455 154.442H74.9736L76.5994 152.277L85.0824 140.18H92.4829L89.0542 154.442H84.3581L85.4445 151.375ZM85.4445 148.667H86.346L87.9717 142.526L85.4445 145.596L83.0827 148.667H85.4445ZM76.5994 143.25L78.2212 140.18H73.1589L65.9356 153.54L65.4042 154.442H70.4586L76.5994 143.25ZM65.9474 144.333C66.6717 142.888 66.6717 141.625 65.9474 141.081C65.4042 140.542 64.3217 140.18 63.0581 140.18H53.6736L48.076 151.375L46.4503 154.442H51.5086L53.8705 149.568H55.8387L56.2008 154.442H61.0741L60.712 149.568C63.0738 149.568 63.7824 148.486 64.3217 147.206L65.9474 144.317V144.333ZM58.3659 147.041H58.9051C59.8105 147.041 60.8734 146.14 61.267 145.415L61.4481 144.695C61.547 144.545 61.6008 144.37 61.6029 144.19C61.605 144.01 61.5554 143.834 61.4599 143.682C61.3645 143.529 61.2273 143.408 61.0647 143.331C60.902 143.255 60.7208 143.227 60.5427 143.25H56.7519L55.1301 147.041H58.3659ZM37.2469 136.57L37.4241 136.389H41.9391V131.681H34.5387C23.5167 145.762 12.3333 154.607 0.960938 154.245L1.14202 158.217H17.3877L37.2469 136.566V136.57Z" fill="#2E3192"/>
<path fill-rule="evenodd" clip-rule="evenodd" d="M83.1584 131.286C81.1469 131.679 78.7299 131.679 76.313 131.679C49.3288 131.679 27.1785 109.529 27.1785 82.5449C27.1794 73.3222 29.6856 64.2729 34.4294 56.3637C42.4833 64.4177 48.1203 73.2904 53.3557 81.7379C56.5797 88.1819 61.4136 90.1973 67.0506 93.0119C67.244 92.7697 67.4887 92.5735 67.7671 92.4373C68.0455 92.3012 68.3507 92.2285 68.6606 92.2246C69.4675 92.2246 69.8691 93.0119 69.8691 94.24V94.6337C70.676 95.0273 71.8845 95.8422 73.093 96.2437L82.3554 87.3828C81.1469 86.9891 79.5369 86.5955 78.3284 85.7728C78.3284 86.5798 77.5215 86.5797 77.1199 86.5797C76.313 86.5797 75.506 86.1861 75.506 85.3673V84.58C64.6336 79.3446 56.5797 72.4992 49.7342 65.6498C40.4718 55.9858 33.6224 45.9165 22.3446 39.8741H10.2637C18.3176 43.905 25.1644 48.3361 30.8039 53.1674C25.2989 61.9877 22.3688 72.1712 22.3446 82.5685C22.3446 112.371 46.9118 136.131 76.313 136.131H83.1584C97.0071 134.221 109.57 127.001 118.193 115.997C119.397 116.784 120.61 118.008 122.22 118.815L128.664 113.969L98.4593 102.692L131.08 111.954L141.551 105.51C125.44 105.51 110.54 103.499 99.6639 98.2631C114.567 101.889 130.675 102.692 147.594 102.29L159.683 93.4252C137.532 97.8576 115.784 97.4522 93.6333 91.0082L83.1584 101.889C93.2278 108.734 103.699 108.734 114.174 113.969C106.521 123.232 95.6448 129.274 83.1584 131.29V131.286ZM83.1584 98.6646L90.8148 91.0122L85.1739 87.7922L83.1584 89.8037L82.3711 90.6107C82.7886 91.0565 83.0629 91.6173 83.1584 92.2207V92.6143C83.1584 93.8228 81.9539 95.0313 80.3399 95.0313C79.5964 95.0204 78.8818 94.7408 78.3284 94.244L75.1045 97.0625L81.1469 100.688L83.1584 98.6724V98.6646ZM83.1584 84.5682L91.6178 88.5952C94.023 84.5682 94.023 84.5682 97.6602 86.1822C125.853 97.0546 146.795 96.2476 158.474 84.5682C148.806 89.4022 139.142 91.4137 129.474 90.2091C129.868 87.7922 129.868 84.9698 129.868 82.5567C129.868 55.1671 109.729 32.2098 83.1466 28.9898C81.1351 28.5962 78.7181 28.5962 76.3012 28.5962C61.4018 28.5962 48.1085 34.6347 38.0391 44.3025C35.2206 42.2871 32.0006 41.0786 27.9737 41.8856C40.46 47.5225 45.6876 63.2328 59.3863 59.5995C51.7339 56.7771 46.4985 51.1401 41.6724 47.5147C50.9348 38.6577 63.0197 33.0168 76.313 33.0168C78.7299 33.0168 81.1469 33.4104 83.1584 33.4104C106.923 37.0359 125.853 57.5762 125.853 82.5489C125.853 84.9619 125.459 87.3788 125.046 89.7958C113.768 88.5873 102.494 83.3519 90.799 76.908C87.9924 75.3176 85.1739 74.924 83.1584 76.1049C81.1469 76.9119 79.5369 78.9273 79.1315 82.5528L83.1584 84.5643V84.5682Z" fill="#2E3192"/>
<path fill-rule="evenodd" clip-rule="evenodd" d="M1.07465 4.65679H4.83787L3.94037 2.33036H0.358216L1.07465 4.65679ZM70.9502 16.4858H73.0995L72.2059 12.3643H68.8009L69.8755 16.4858H70.9502ZM70.9502 8.6129H75.6109L77.9373 15.9583H84.3891L82.0588 8.6129H87.6131L89.9434 15.9583H98.1863L95.6788 8.6129H101.41L103.56 15.9583H110.37L108.401 8.6129H113.239L115.747 15.9583H123.812L118.25 0H126.851C138.141 11.6479 149.25 19.8868 160 22.7525V25.0829H144.589L124.879 5.00713L130.437 21.3118H79.7323L81.1652 25.6143H76.5045L74.7331 21.3197H67.1869L63.2505 8.60109L70.9502 8.6129ZM8.23895 16.4858H10.5693L9.49467 12.3643H5.73144L6.80609 16.4858H8.23895ZM8.23895 8.6129H12.5375L14.6868 15.9583H41.3837L39.5926 11.6597H44.4226L47.4694 21.3315H4.12144L0 8.6129H8.23895ZM8.23895 2.34217H9.13645L10.034 4.6686H6.44787L5.5543 2.34217H8.23895ZM56.7948 8.6129H52.6891L56.9916 21.3315H52.6891L53.5866 25.0947H62.5301L56.7948 8.6129ZM23.469 25.2758H27.2322L26.3386 22.5715H22.5754L23.469 25.26V25.2758ZM28.6651 25.2758H32.4283L31.5347 22.5715H27.9486L28.6651 25.26V25.2758Z" fill="#2E3192"/>
</g>
</g>
<defs>
<filter id="filter0_d_0_1" x="-32" y="-36" width="872" height="318.5" filterUnits="userSpaceOnUse" color-interpolation-filters="sRGB">
<feFlood flood-opacity="0" result="BackgroundImageFix"/>
<feColorMatrix in="SourceAlpha" type="matrix" values="0 0 0 0 0 0 0 0 0 0 0 0 0 0 0 0 0 0 127 0" result="hardAlpha"/>
<feOffset dy="4"/>
<feGaussianBlur stdDeviation="8"/>
<feComposite in2="hardAlpha" operator="out"/>
<feColorMatrix type="matrix" values="0 0 0 0 0.0666667 0 0 0 0 0.133333 0 0 0 0 0.0666667 0 0 0 0.05 0"/>
<feBlend mode="normal" in2="BackgroundImageFix" result="effect1_dropShadow_0_1"/>
<feBlend mode="normal" in="SourceGraphic" in2="effect1_dropShadow_0_1" result="shape"/>
</filter>
<clipPath id="clip0_0_1">
<rect width="1440" height="2408" fill="white" transform="translate(-503 -457)"/>
</clipPath>
</defs>
</svg>
