<svg width="20" height="16" viewBox="0 0 20 16" fill="none" xmlns="http://www.w3.org/2000/svg">
<path d="M19.7029 2.26124C19.0071 2.56958 18.2596 2.77791 17.4737 2.87208C18.2846 2.3869 18.8912 1.6233 19.1804 0.723744C18.4186 1.17624 17.5849 1.49474 16.7154 1.66541C16.1307 1.04113 15.3563 0.627349 14.5124 0.488306C13.6684 0.349262 12.8022 0.492737 12.0481 0.896455C11.2941 1.30017 10.6944 1.94155 10.3422 2.721C9.99003 3.50045 9.90503 4.37437 10.1004 5.20708C8.55682 5.12957 7.04677 4.72837 5.66827 4.0295C4.28977 3.33063 3.07362 2.34971 2.09875 1.15041C1.76542 1.72541 1.57375 2.39208 1.57375 3.10208C1.57338 3.74124 1.73078 4.37061 2.03198 4.93435C2.33319 5.4981 2.76888 5.97878 3.30042 6.33374C2.68398 6.31413 2.08114 6.14756 1.54208 5.84791V5.89791C1.54202 6.79436 1.85211 7.66323 2.41974 8.35707C2.98736 9.05092 3.77756 9.52702 4.65625 9.70458C4.0844 9.85934 3.48486 9.88214 2.90292 9.77125C3.15083 10.5426 3.63375 11.2171 4.28406 11.7003C4.93437 12.1836 5.71951 12.4514 6.52958 12.4662C5.15444 13.5458 3.45616 14.1313 1.70792 14.1287C1.39823 14.1288 1.08881 14.1107 0.78125 14.0746C2.55581 15.2156 4.62153 15.8211 6.73125 15.8187C13.8729 15.8187 17.7771 9.90374 17.7771 4.77374C17.7771 4.60708 17.7729 4.43874 17.7654 4.27208C18.5248 3.72289 19.1803 3.04282 19.7013 2.26374L19.7029 2.26124Z" fill="#112211"/>
</svg>
