<svg width="46" height="40" viewBox="0 0 46 40" fill="none" xmlns="http://www.w3.org/2000/svg">
<path d="M16.4947 39.5H13.999C13.7483 39.4999 13.5015 39.437 13.2814 39.3169C13.0612 39.1969 12.8747 39.0235 12.7388 38.8128C12.6029 38.602 12.5221 38.3606 12.5036 38.1105C12.4851 37.8604 12.5297 37.6097 12.6331 37.3812L18.6762 24.0453L9.60216 23.8438L6.29279 27.8534C5.66185 28.6466 5.15841 29 3.87404 29H2.19404C1.92804 29.0086 1.6639 28.9529 1.424 28.8377C1.1841 28.7224 0.975514 28.5511 0.815911 28.3381C0.592786 28.0372 0.373412 27.5272 0.587162 26.7997L2.44529 20.1434C2.45935 20.0938 2.47622 20.0441 2.49497 19.9953C2.49591 19.9907 2.49591 19.9859 2.49497 19.9813C2.47561 19.9325 2.45902 19.8828 2.44529 19.8322L0.585287 13.1337C0.383724 12.4203 0.604036 11.9216 0.825286 11.6281C0.973858 11.431 1.16661 11.2715 1.38805 11.1624C1.60949 11.0533 1.85344 10.9977 2.10029 11L3.87404 11C4.8331 11 5.76404 11.4303 6.31154 12.125L9.55247 16.0672L18.6762 15.9322L12.635 2.61969C12.5314 2.39136 12.4867 2.14071 12.505 1.89065C12.5233 1.6406 12.6039 1.39911 12.7396 1.18827C12.8753 0.97743 13.0616 0.803964 13.2817 0.683729C13.5017 0.563494 13.7483 0.500326 13.999 0.5L16.5218 0.5C16.8738 0.507073 17.2197 0.593339 17.5337 0.752394C17.8478 0.911448 18.1219 1.1392 18.3359 1.41875L30.0593 15.6688L35.4753 15.5262C35.8718 15.5047 36.9706 15.4972 37.2247 15.4972C42.4053 15.5 45.499 17.1819 45.499 20C45.499 20.8869 45.1447 22.5313 42.7737 23.5775C41.374 24.1963 39.5065 24.5094 37.2228 24.5094C36.9715 24.5094 35.8756 24.5019 35.4734 24.4803L30.0584 24.3359L18.3059 38.5859C18.0918 38.8643 17.8178 39.0909 17.5043 39.2491C17.1908 39.4073 16.8458 39.4931 16.4947 39.5Z" fill="#112211"/>
</svg>
