<svg width="22" height="22" viewBox="0 0 22 22" fill="none" xmlns="http://www.w3.org/2000/svg">
<path d="M21.1716 0.830392C21.0182 0.677056 20.8238 0.571319 20.6118 0.525911C20.3997 0.480504 20.179 0.497361 19.9763 0.574454L1.2249 7.6718H1.22115C1.00494 7.75495 0.819678 7.90282 0.690656 8.09521C0.561635 8.2876 0.495148 8.51513 0.500276 8.74672C0.505404 8.97831 0.581897 9.20267 0.719309 9.38916C0.85672 9.57564 1.04835 9.71517 1.26802 9.78867L1.28724 9.79477L7.72318 12.543C7.84871 12.5812 7.98204 12.5857 8.10986 12.5561C8.23768 12.5266 8.35552 12.4641 8.45162 12.3748L18.781 2.74992C18.8118 2.71914 18.8483 2.69473 18.8885 2.67807C18.9287 2.66142 18.9718 2.65284 19.0154 2.65284C19.0589 2.65284 19.102 2.66142 19.1422 2.67807C19.1824 2.69473 19.219 2.71914 19.2497 2.74992C19.2805 2.7807 19.3049 2.81724 19.3216 2.85746C19.3382 2.89767 19.3468 2.94077 19.3468 2.9843C19.3468 3.02783 19.3382 3.07093 19.3216 3.11114C19.3049 3.15136 19.2805 3.18789 19.2497 3.21867L9.62443 13.5434C9.53512 13.6395 9.47258 13.7573 9.44305 13.8851C9.41353 14.0129 9.41804 14.1463 9.45615 14.2718L12.2054 20.7115C12.2082 20.7209 12.211 20.7293 12.2143 20.7382C12.3643 21.1727 12.744 21.4793 13.2029 21.4999H13.2497C13.4814 21.5012 13.7081 21.4328 13.9004 21.3036C14.0927 21.1744 14.2416 20.9903 14.3279 20.7752L21.4243 2.02899C21.5025 1.82615 21.5202 1.605 21.4754 1.39229C21.4305 1.17957 21.325 0.984408 21.1716 0.830392Z" fill="black"/>
</svg>
