<svg width="42" height="45" viewBox="0 0 42 45" fill="none" xmlns="http://www.w3.org/2000/svg">
<path d="M37.5 15L27 15L27 4.5C27 3.30653 26.5259 2.16193 25.682 1.31802C24.8381 0.474106 23.6935 0 22.5 0L4.5 0C3.30653 0 2.16193 0.474106 1.31802 1.31802C0.474106 2.16193 0 3.30653 0 4.5L0 43.5C0 43.8978 0.158035 44.2794 0.43934 44.5607C0.720644 44.842 1.10218 45 1.5 45H11.25C11.4489 45 11.6397 44.921 11.7803 44.7803C11.921 44.6397 12 44.4489 12 44.25L12 37.5422C12 36.735 12.6206 36.0422 13.4278 36.0019C13.6306 35.9921 13.8333 36.0236 14.0236 36.0945C14.2139 36.1654 14.3878 36.2741 14.5348 36.4142C14.6818 36.5543 14.7988 36.7227 14.8788 36.9094C14.9587 37.096 15 37.297 15 37.5L15 44.25C15 44.4489 15.079 44.6397 15.2197 44.7803C15.3603 44.921 15.5511 45 15.75 45L40.5 45C40.8978 45 41.2794 44.842 41.5607 44.5607C41.842 44.2794 42 43.8978 42 43.5L42 19.5C42 18.3065 41.5259 17.1619 40.682 16.318C39.8381 15.4741 38.6935 15 37.5 15ZM6.195 38.9878C5.88434 39.0284 5.56875 38.9708 5.29254 38.8229C5.01632 38.675 4.79334 38.4444 4.65489 38.1633C4.51644 37.8823 4.46946 37.5649 4.52057 37.2558C4.57167 36.9467 4.71828 36.6614 4.93982 36.4398C5.16136 36.2183 5.44671 36.0717 5.75582 36.0206C6.06493 35.9695 6.38228 36.0164 6.66334 36.1549C6.94439 36.2933 7.17504 36.5163 7.32291 36.7925C7.47078 37.0688 7.52844 37.3843 7.48781 37.695C7.44494 38.0228 7.29494 38.3273 7.06114 38.5611C6.82734 38.7949 6.52285 38.9449 6.195 38.9878ZM6.195 31.4878C5.88434 31.5284 5.56875 31.4708 5.29254 31.3229C5.01632 31.175 4.79334 30.9444 4.65489 30.6633C4.51644 30.3823 4.46946 30.0649 4.52057 29.7558C4.57167 29.4467 4.71828 29.1614 4.93982 28.9398C5.16136 28.7183 5.44671 28.5717 5.75582 28.5206C6.06493 28.4695 6.38228 28.5164 6.66334 28.6549C6.94439 28.7933 7.17504 29.0163 7.32291 29.2925C7.47078 29.5688 7.52844 29.8843 7.48781 30.195C7.44494 30.5228 7.29494 30.8273 7.06114 31.0611C6.82734 31.2949 6.52285 31.4449 6.195 31.4878ZM6.195 23.9878C5.88434 24.0284 5.56875 23.9708 5.29254 23.8229C5.01632 23.675 4.79334 23.4444 4.65489 23.1633C4.51644 22.8823 4.46946 22.5649 4.52057 22.2558C4.57167 21.9467 4.71828 21.6614 4.93982 21.4398C5.16136 21.2183 5.44671 21.0717 5.75582 21.0206C6.06493 20.9695 6.38228 21.0164 6.66334 21.1549C6.94439 21.2933 7.17504 21.5163 7.32291 21.7925C7.47078 22.0688 7.52844 22.3843 7.48781 22.695C7.44494 23.0228 7.29494 23.3273 7.06114 23.5611C6.82734 23.7949 6.52285 23.9449 6.195 23.9878ZM6.195 16.4878C5.88434 16.5284 5.56875 16.4708 5.29254 16.3229C5.01632 16.175 4.79334 15.9444 4.65489 15.6633C4.51644 15.3823 4.46946 15.0649 4.52057 14.7558C4.57167 14.4467 4.71828 14.1614 4.93982 13.9398C5.16136 13.7183 5.44671 13.5717 5.75582 13.5206C6.06493 13.4695 6.38228 13.5164 6.66334 13.6549C6.94439 13.7933 7.17504 14.0163 7.32291 14.2925C7.47078 14.5688 7.52844 14.8843 7.48781 15.195C7.44494 15.5228 7.29494 15.8273 7.06114 16.0611C6.82734 16.2949 6.52285 16.4449 6.195 16.4878ZM6.195 8.98781C5.88434 9.02844 5.56875 8.97078 5.29254 8.82291C5.01632 8.67504 4.79334 8.44439 4.65489 8.16334C4.51644 7.88228 4.46946 7.56493 4.52057 7.25582C4.57167 6.94671 4.71828 6.66136 4.93982 6.43982C5.16136 6.21828 5.44671 6.07167 5.75582 6.02057C6.06493 5.96946 6.38228 6.01644 6.66334 6.15489C6.94439 6.29334 7.17504 6.51632 7.32291 6.79254C7.47078 7.06875 7.52844 7.38434 7.48781 7.695C7.44494 8.02285 7.29494 8.32734 7.06114 8.56114C6.82734 8.79494 6.52285 8.94493 6.195 8.98781ZM13.695 31.4878C13.3843 31.5284 13.0688 31.4708 12.7925 31.3229C12.5163 31.175 12.2933 30.9444 12.1549 30.6633C12.0164 30.3823 11.9695 30.0649 12.0206 29.7558C12.0717 29.4467 12.2183 29.1614 12.4398 28.9398C12.6614 28.7183 12.9467 28.5717 13.2558 28.5206C13.5649 28.4695 13.8823 28.5164 14.1633 28.6549C14.4444 28.7933 14.675 29.0163 14.8229 29.2925C14.9708 29.5688 15.0284 29.8843 14.9878 30.195C14.9449 30.5228 14.7949 30.8273 14.5611 31.0611C14.3273 31.2949 14.0228 31.4449 13.695 31.4878ZM13.695 23.9878C13.3843 24.0284 13.0688 23.9708 12.7925 23.8229C12.5163 23.675 12.2933 23.4444 12.1549 23.1633C12.0164 22.8823 11.9695 22.5649 12.0206 22.2558C12.0717 21.9467 12.2183 21.6614 12.4398 21.4398C12.6614 21.2183 12.9467 21.0717 13.2558 21.0206C13.5649 20.9695 13.8823 21.0164 14.1633 21.1549C14.4444 21.2933 14.675 21.5163 14.8229 21.7925C14.9708 22.0688 15.0284 22.3843 14.9878 22.695C14.9449 23.0228 14.7949 23.3273 14.5611 23.5611C14.3273 23.7949 14.0228 23.9449 13.695 23.9878ZM13.695 16.4878C13.3843 16.5284 13.0688 16.4708 12.7925 16.3229C12.5163 16.175 12.2933 15.9444 12.1549 15.6633C12.0164 15.3823 11.9695 15.0649 12.0206 14.7558C12.0717 14.4467 12.2183 14.1614 12.4398 13.9398C12.6614 13.7183 12.9467 13.5717 13.2558 13.5206C13.5649 13.4695 13.8823 13.5164 14.1633 13.6549C14.4444 13.7933 14.675 14.0163 14.8229 14.2925C14.9708 14.5688 15.0284 14.8843 14.9878 15.195C14.9449 15.5228 14.7949 15.8273 14.5611 16.0611C14.3273 16.2949 14.0228 16.4449 13.695 16.4878ZM13.695 8.98781C13.3843 9.02844 13.0688 8.97078 12.7925 8.82291C12.5163 8.67504 12.2933 8.44439 12.1549 8.16334C12.0164 7.88228 11.9695 7.56493 12.0206 7.25582C12.0717 6.94671 12.2183 6.66136 12.4398 6.43982C12.6614 6.21828 12.9467 6.07167 13.2558 6.02057C13.5649 5.96946 13.8823 6.01644 14.1633 6.15489C14.4444 6.29334 14.675 6.51632 14.8229 6.79254C14.9708 7.06875 15.0284 7.38434 14.9878 7.695C14.9449 8.02285 14.7949 8.32734 14.5611 8.56114C14.3273 8.79494 14.0228 8.94493 13.695 8.98781ZM21.195 38.9878C20.8843 39.0284 20.5688 38.9708 20.2925 38.8229C20.0163 38.675 19.7933 38.4444 19.6549 38.1633C19.5164 37.8823 19.4695 37.5649 19.5206 37.2558C19.5717 36.9467 19.7183 36.6614 19.9398 36.4398C20.1614 36.2183 20.4467 36.0717 20.7558 36.0206C21.0649 35.9695 21.3823 36.0164 21.6633 36.1549C21.9444 36.2933 22.175 36.5163 22.3229 36.7925C22.4708 37.0688 22.5284 37.3843 22.4878 37.695C22.4449 38.0228 22.2949 38.3273 22.0611 38.5611C21.8273 38.7949 21.5228 38.9449 21.195 38.9878ZM21.195 31.4878C20.8843 31.5284 20.5688 31.4708 20.2925 31.3229C20.0163 31.175 19.7933 30.9444 19.6549 30.6633C19.5164 30.3823 19.4695 30.0649 19.5206 29.7558C19.5717 29.4467 19.7183 29.1614 19.9398 28.9398C20.1614 28.7183 20.4467 28.5717 20.7558 28.5206C21.0649 28.4695 21.3823 28.5164 21.6633 28.6549C21.9444 28.7933 22.175 29.0163 22.3229 29.2925C22.4708 29.5688 22.5284 29.8843 22.4878 30.195C22.4449 30.5228 22.2949 30.8273 22.0611 31.0611C21.8273 31.2949 21.5228 31.4449 21.195 31.4878ZM21.195 23.9878C20.8843 24.0284 20.5688 23.9708 20.2925 23.8229C20.0163 23.675 19.7933 23.4444 19.6549 23.1633C19.5164 22.8823 19.4695 22.5649 19.5206 22.2558C19.5717 21.9467 19.7183 21.6614 19.9398 21.4398C20.1614 21.2183 20.4467 21.0717 20.7558 21.0206C21.0649 20.9695 21.3823 21.0164 21.6633 21.1549C21.9444 21.2933 22.175 21.5163 22.3229 21.7925C22.4708 22.0688 22.5284 22.3843 22.4878 22.695C22.4449 23.0228 22.2949 23.3273 22.0611 23.5611C21.8273 23.7949 21.5228 23.9449 21.195 23.9878ZM21.195 16.4878C20.8843 16.5284 20.5688 16.4708 20.2925 16.3229C20.0163 16.175 19.7933 15.9444 19.6549 15.6633C19.5164 15.3823 19.4695 15.0649 19.5206 14.7558C19.5717 14.4467 19.7183 14.1614 19.9398 13.9398C20.1614 13.7183 20.4467 13.5717 20.7558 13.5206C21.0649 13.4695 21.3823 13.5164 21.6633 13.6549C21.9444 13.7933 22.175 14.0163 22.3229 14.2925C22.4708 14.5688 22.5284 14.8843 22.4878 15.195C22.4449 15.5228 22.2949 15.8273 22.0611 16.0611C21.8273 16.2949 21.5228 16.4449 21.195 16.4878ZM21.195 8.98781C20.8843 9.02844 20.5688 8.97078 20.2925 8.82291C20.0163 8.67504 19.7933 8.44439 19.6549 8.16334C19.5164 7.88228 19.4695 7.56493 19.5206 7.25582C19.5717 6.94671 19.7183 6.66136 19.9398 6.43982C20.1614 6.21828 20.4467 6.07167 20.7558 6.02057C21.0649 5.96946 21.3823 6.01644 21.6633 6.15489C21.9444 6.29334 22.175 6.51632 22.3229 6.79254C22.4708 7.06875 22.5284 7.38434 22.4878 7.695C22.4449 8.02285 22.2949 8.32734 22.0611 8.56114C21.8273 8.79494 21.5228 8.94493 21.195 8.98781ZM38.625 42L27 42L27 18L37.5 18C37.8978 18 38.2794 18.158 38.5607 18.4393C38.842 18.7206 39 19.1022 39 19.5L39 41.625C39 41.7245 38.9605 41.8198 38.8902 41.8902C38.8198 41.9605 38.7245 42 38.625 42Z" fill="#112211"/>
</svg>
