<svg width="24" height="25" viewBox="0 0 24 25" fill="none" xmlns="http://www.w3.org/2000/svg">
<g clip-path="url(#clip0_2889_1961)">
<path d="M0.96 4.70587C0.429912 4.70587 0 5.13566 0 5.66587V18.8179C0 19.3481 0.430128 19.7779 0.96 19.7779H23.04C23.5701 19.7779 24 19.3481 24 18.8179V5.66587C24 5.13569 23.5699 4.70587 23.04 4.70587H0.96ZM14.334 9.19762C14.9181 9.19762 15.3862 9.32664 15.6847 9.44662L15.4807 10.7299L15.3457 10.6616C15.0677 10.5416 14.7105 10.4262 14.2177 10.4344C13.6279 10.4344 13.3553 10.6975 13.3553 10.9436C13.3518 11.221 13.6739 11.4039 14.2005 11.6779C15.0697 12.1005 15.4714 12.613 15.4658 13.2866C15.4541 14.5158 14.426 15.3101 12.8423 15.3101C12.1666 15.3027 11.5156 15.1596 11.1637 14.9944L11.3753 13.6684L11.5695 13.7629C12.0643 13.984 12.3847 14.0734 12.9877 14.0734C13.4208 14.0734 13.8856 13.8921 13.8893 13.4951C13.8921 13.2359 13.695 13.0511 13.1085 12.7609C12.537 12.4776 11.7794 12.003 11.7878 11.1521C11.7967 10.0011 12.8453 9.19762 14.334 9.19762ZM2.12249 9.38587H4.55474C4.88227 9.39826 5.1467 9.50371 5.238 9.85913L5.76226 12.5651C5.76233 12.5654 5.76216 12.5664 5.76226 12.5666L5.91974 13.3774L7.39649 9.38587H8.994L6.61949 15.2284L5.02349 15.2299L3.753 10.5154C4.50895 10.9158 5.15254 11.3792 5.52526 12.0169C5.42916 11.8151 5.30254 11.5873 5.14051 11.3629C4.95182 11.1015 4.54433 10.764 4.374 10.6204C3.78048 10.12 2.97444 9.71594 2.10374 9.50213L2.12249 9.38587ZM9.62926 9.39262H11.1915L10.2142 15.2261H8.652L9.62926 9.39262ZM18.453 9.39262H19.6365L20.8755 15.2261H19.455C19.455 15.2261 19.3141 14.556 19.2683 14.3516C19.045 14.3516 17.4834 14.3494 17.3077 14.3494C17.2483 14.5073 16.9853 15.2261 16.9853 15.2261H15.378L17.6513 9.87713C17.8122 9.49702 18.0865 9.39262 18.453 9.39262ZM18.5693 10.9616C18.4924 11.1786 18.3585 11.529 18.3675 11.5136C18.3675 11.5136 17.8866 12.7962 17.7608 13.1291L19.0245 13.1284C18.9071 12.5721 18.7896 12.0159 18.672 11.4597L18.5693 10.9617V10.9616Z" fill="#1434CB"/>
</g>
<defs>
<clipPath id="clip0_2889_1961">
<rect width="24" height="24" fill="white" transform="translate(0 0.241882)"/>
</clipPath>
</defs>
</svg>
