<svg width="85" height="188" viewBox="0 0 85 188" fill="none" xmlns="http://www.w3.org/2000/svg">
<path d="M38.4375 259.762H83.9937C84.3812 259.762 84.6874 257.956 84.6874 255.856V4.25623C84.6874 2.14373 84.3749 0.349976 83.9937 0.349976H38.4437C38.2375 0.349976 38.0812 0.756221 37.9812 1.39997L37.9687 1.53122C37.9687 1.53122 37.9562 1.54372 37.9437 1.66247C37.8025 2.52371 37.7419 3.39623 37.7625 4.26872V255.869C37.7625 257.956 38.0625 259.762 38.4375 259.762Z" fill="#A4806D"/>
<path d="M1.25 151.231H83.4375C84.125 151.231 84.6938 150.844 84.6938 150.388V95.4375C84.6938 94.975 84.125 94.575 83.4375 94.575H1.23751C0.943478 94.5668 0.653776 94.6474 0.406253 94.8063L0.36875 94.8313L0.318754 94.8688C0.222801 94.9284 0.143344 95.0111 0.0876546 95.1094C0.0319655 95.2077 0.00182199 95.3184 0 95.4313V150.381C0 150.85 0.543762 151.231 1.23751 151.231" fill="#A4806D"/>
</svg>
